 0
SECTION
 2
ENTITIES
  0
LINE
 8
Layer0
10
45.99999999999999
20
84.64360799239853
30
0.0
11
46.13629669484372
21
83.60833181198845
31
0.0
  0
LINE
 8
Layer0
10
48.0
20
81.17950637726076
30
0.0
11
48.96472381958991
21
80.77990468724225
31
0.0
  0
LINE
 8
Layer0
10
52.8284271247462
20
81.81518086765233
30
0.0
11
53.46410161513776
21
82.64360799239851
31
0.0
  0
LINE
 8
Layer0
10
46.13629669484372
20
83.60833181198845
30
0.0
11
46.53589838486224
21
82.64360799239853
31
0.0
  0
LINE
 8
Layer0
10
46.13629669484372
20
85.67888417280861
30
0.0
11
45.99999999999999
21
84.64360799239853
31
0.0
  0
LINE
 8
Layer0
10
51.03527618041008
20
80.77990468724225
30
0.0
11
51.99999999999999
21
81.17950637726076
31
0.0
  0
LINE
 8
Layer0
10
53.86370330515628
20
83.60833181198844
30
0.0
11
54.0
21
84.64360799239853
31
0.0
  0
LINE
 8
Layer0
10
47.1715728752538
20
81.81518086765234
30
0.0
11
48.0
21
81.17950637726076
31
0.0
  0
LINE
 8
Layer0
10
50.0
20
80.64360799239851
30
0.0
11
51.03527618041008
21
80.77990468724225
31
0.0
  0
LINE
 8
Layer0
10
48.96472381958991
20
88.5073112975548
30
0.0
11
48.0
21
88.10770960753628
31
0.0
  0
LINE
 8
Layer0
10
48.96472381958991
20
80.77990468724225
30
0.0
11
50.0
21
80.64360799239851
31
0.0
  0
LINE
 8
Layer0
10
53.46410161513776
20
82.64360799239851
30
0.0
11
53.86370330515628
21
83.60833181198844
31
0.0
  0
LINE
 8
Layer0
10
48.0
20
88.10770960753628
30
0.0
11
47.17157287525381
21
87.47203511714473
31
0.0
  0
LINE
 8
Layer0
10
51.99999999999999
20
81.17950637726076
30
0.0
11
52.8284271247462
21
81.81518086765233
31
0.0
  0
LINE
 8
Layer0
10
47.17157287525381
20
87.47203511714473
30
0.0
11
46.53589838486224
21
86.64360799239853
31
0.0
  0
LINE
 8
Layer0
10
46.53589838486224
20
86.64360799239853
30
0.0
11
46.13629669484372
21
85.67888417280861
31
0.0
  0
LINE
 8
Layer0
10
46.53589838486224
20
82.64360799239853
30
0.0
11
47.1715728752538
21
81.81518086765234
31
0.0
  0
POLYLINE
 8
Layer0
 66
     1
70
    8
 10
0.0
 20
 0.0
 30
0.0
  0
VERTEX
  8
MY3DLAYER
10
79.99999999999999
20
9.999999999999998
30
0.0
 70
     32
  0
VERTEX
  8
MY3DLAYER
10
79.9144486137381
20
8.694738077799483
30
0.0
 70
     32
  0
VERTEX
  8
MY3DLAYER
10
79.65925826289067
20
7.411809548974792
30
0.0
 70
     32
  0
VERTEX
  8
MY3DLAYER
10
79.23879532511285
20
6.173165676349102
30
0.0
 70
     32
  0
VERTEX
  8
MY3DLAYER
10
78.66025403784438
20
5.0
30
0.0
 70
     32
  0
VERTEX
  8
MY3DLAYER
10
77.93353340291235
20
3.9123857099127943
30
0.0
 70
     32
  0
VERTEX
  8
MY3DLAYER
10
77.07106781186546
20
2.9289321881345254
30
0.0
 70
     32
  0
VERTEX
  8
MY3DLAYER
10
76.0876142900872
20
2.0664665970876492
30
0.0
 70
     32
  0
VERTEX
  8
MY3DLAYER
10
75.0
20
1.339745962155614
30
0.0
 70
     32
  0
VERTEX
  8
MY3DLAYER
10
73.8268343236509
20
0.7612046748871323
30
0.0
 70
     32
  0
VERTEX
  8
MY3DLAYER
10
72.5881904510252
20
0.3407417371093147
30
0.0
 70
     32
  0
VERTEX
  8
MY3DLAYER
10
71.30526192220051
20
0.08555138626189177
30
0.0
 70
     32
  0
VERTEX
  8
MY3DLAYER
10
70.0
20
-5.639932965095795e-15
30
0.0
 70
     32
  0
VERTEX
  8
MY3DLAYER
10
29.999999999999996
20
0.0
30
0.0
 70
     32
  0
VERTEX
  8
MY3DLAYER
10
28.69473807779948
20
0.085551386261896
30
0.0
 70
     32
  0
VERTEX
  8
MY3DLAYER
10
27.41180954897479
20
0.34074173710931754
30
0.0
 70
     32
  0
VERTEX
  8
MY3DLAYER
10
26.173165676349097
20
0.7612046748871323
30
0.0
 70
     32
  0
VERTEX
  8
MY3DLAYER
10
24.999999999999996
20
1.339745962155614
30
0.0
 70
     32
  0
VERTEX
  8
MY3DLAYER
10
23.91238570991279
20
2.0664665970876492
30
0.0
 70
     32
  0
VERTEX
  8
MY3DLAYER
10
22.92893218813452
20
2.9289321881345254
30
0.0
 70
     32
  0
VERTEX
  8
MY3DLAYER
10
22.066466597087643
20
3.9123857099127943
30
0.0
 70
     32
  0
VERTEX
  8
MY3DLAYER
10
21.33974596215561
20
5.0
30
0.0
 70
     32
  0
VERTEX
  8
MY3DLAYER
10
20.761204674887132
20
6.173165676349101
30
0.0
 70
     32
  0
VERTEX
  8
MY3DLAYER
10
20.34074173710932
20
7.411809548974792
30
0.0
 70
     32
  0
VERTEX
  8
MY3DLAYER
10
20.085551386261898
20
8.694738077799483
30
0.0
 70
     32
  0
VERTEX
  8
MY3DLAYER
10
20.0
20
9.999999999999998
30
0.0
 70
     32
  0
VERTEX
  8
MY3DLAYER
10
18.29008165304143
20
24.200365860184565
30
0.0
 70
     32
  0
VERTEX
  8
MY3DLAYER
10
17.05226805366473
20
38.449647554696405
30
0.0
 70
     32
  0
VERTEX
  8
MY3DLAYER
10
16.28792227331101
20
52.732153876921764
30
0.0
 70
     32
  0
VERTEX
  8
MY3DLAYER
10
15.997886004061495
20
67.03215703352535
30
0.0
 70
     32
  0
VERTEX
  8
MY3DLAYER
10
16.182478631771893
20
81.33390996378347
30
0.0
 70
     32
  0
VERTEX
  8
MY3DLAYER
10
16.841496884366723
20
95.62166368013438
30
0.0
 70
     32
  0
VERTEX
  8
MY3DLAYER
10
17.974215055681924
20
109.87968461085
30
0.0
 70
     32
  0
VERTEX
  8
MY3DLAYER
10
19.5793858046062
20
124.09227192573219
30
0.0
 70
     32
  0
VERTEX
  8
MY3DLAYER
10
21.6552415286448
20
138.24377482575412
30
0.0
 70
     32
  0
VERTEX
  8
MY3DLAYER
10
24.199496310390348
20
152.3186097776076
30
0.0
 70
     32
  0
VERTEX
  8
MY3DLAYER
10
27.20934843475891
20
166.3012776741782
30
0.0
 70
     32
  0
VERTEX
  8
MY3DLAYER
10
30.681483474218638
20
180.1763809020504
30
0.0
 70
     32
  0
VERTEX
  8
MY3DLAYER
10
32.679491924311236
20
185.0
30
0.0
 70
     32
  0
VERTEX
  8
MY3DLAYER
10
35.857864376269056
20
189.14213562373092
30
0.0
 70
     32
  0
VERTEX
  8
MY3DLAYER
10
40.00000000000001
20
192.32050807568876
30
0.0
 70
     32
  0
VERTEX
  8
MY3DLAYER
10
44.82361909794959
20
194.31851652578135
30
0.0
 70
     32
  0
VERTEX
  8
MY3DLAYER
10
50.0
20
195.0
30
0.0
 70
     32
  0
VERTEX
  8
MY3DLAYER
10
55.17638090205042
20
194.31851652578135
30
0.0
 70
     32
  0
VERTEX
  8
MY3DLAYER
10
60.0
20
192.32050807568876
30
0.0
 70
     32
  0
VERTEX
  8
MY3DLAYER
10
64.14213562373094
20
189.14213562373092
30
0.0
 70
     32
  0
VERTEX
  8
MY3DLAYER
10
67.32050807568876
20
185.0
30
0.0
 70
     32
  0
VERTEX
  8
MY3DLAYER
10
69.31851652578136
20
180.1763809020504
30
0.0
 70
     32
  0
VERTEX
  8
MY3DLAYER
10
72.79065156524099
20
166.30127767417818
30
0.0
 70
     32
  0
VERTEX
  8
MY3DLAYER
10
75.80050368960966
20
152.31860977760758
30
0.0
 70
     32
  0
VERTEX
  8
MY3DLAYER
10
78.34475847135519
20
138.243774825754
30
0.0
 70
     32
  0
VERTEX
  8
MY3DLAYER
10
80.4206141953938
20
124.09227192573208
30
0.0
 70
     32
  0
VERTEX
  8
MY3DLAYER
10
82.02578494431798
20
109.87968461084986
30
0.0
 70
     32
  0
VERTEX
  8
MY3DLAYER
10
83.15850311563318
20
95.6216636801342
30
0.0
 70
     32
  0
VERTEX
  8
MY3DLAYER
10
83.8175213682282
20
81.33390996378328
30
0.0
 70
     32
  0
VERTEX
  8
MY3DLAYER
10
84.00211399593842
20
67.0321570335251
30
0.0
 70
     32
  0
VERTEX
  8
MY3DLAYER
10
83.71207772668899
20
52.73215387692148
30
0.0
 70
     32
  0
VERTEX
  8
MY3DLAYER
10
82.94773194633527
20
38.44964755469608
30
0.0
 70
     32
  0
VERTEX
  8
MY3DLAYER
10
81.70991834695857
20
24.200365860184217
30
0.0
 70
     32
  0
VERTEX
  8
MY3DLAYER
10
79.99999999999999
20
9.999999999999998
30
0.0
 70
     32
  0
SEQEND
  0
POLYLINE
 8
Layer0
 66
     1
70
    8
 10
0.0
 20
 0.0
 30
0.0
  0
VERTEX
  8
MY3DLAYER
10
545.4
20
20.000000000000007
30
0.0
 70
     32
  0
VERTEX
  8
MY3DLAYER
10
545.4
20
175.0
30
0.0
 70
     32
  0
VERTEX
  8
MY3DLAYER
10
639.9
20
175.0
30
0.0
 70
     32
  0
VERTEX
  8
MY3DLAYER
10
639.9
20
20.000000000000004
30
0.0
 70
     32
  0
VERTEX
  8
MY3DLAYER
10
545.4
20
20.000000000000007
30
0.0
 70
     32
  0
SEQEND
  0
POLYLINE
 8
Layer0
 66
     1
70
    8
 10
0.0
 20
 0.0
 30
0.0
  0
VERTEX
  8
MY3DLAYER
10
495.39999999999975
20
289.00000000000006
30
0.0
 70
     32
  0
VERTEX
  8
MY3DLAYER
10
485.3999999999997
20
289.00000000000017
30
0.0
 70
     32
  0
VERTEX
  8
MY3DLAYER
10
460.7648924419743
20
294.48181288193166
30
0.0
 70
     32
  0
VERTEX
  8
MY3DLAYER
10
435.931131887697
20
298.9788267356802
30
0.0
 70
     32
  0
VERTEX
  8
MY3DLAYER
10
410.9380698720847
20
302.4839156007087
30
0.0
 70
     32
  0
VERTEX
  8
MY3DLAYER
10
385.82531035888064
20
304.99152531913796
30
0.0
 70
     32
  0
VERTEX
  8
MY3DLAYER
10
360.63264698427946
20
306.4976823368549
30
0.0
 70
     32
  0
VERTEX
  8
MY3DLAYER
10
335.39999999999986
20
307.0000000000001
30
0.0
 70
     32
  0
VERTEX
  8
MY3DLAYER
10
310.1673530157201
20
306.497682336855
30
0.0
 70
     32
  0
VERTEX
  8
MY3DLAYER
10
284.97468964111897
20
304.99152531913796
30
0.0
 70
     32
  0
VERTEX
  8
MY3DLAYER
10
259.8619301279148
20
302.4839156007087
30
0.0
 70
     32
  0
VERTEX
  8
MY3DLAYER
10
234.86886811230258
20
298.97882673568
30
0.0
 70
     32
  0
VERTEX
  8
MY3DLAYER
10
210.03510755802517
20
294.48181288193155
30
0.0
 70
     32
  0
VERTEX
  8
MY3DLAYER
10
185.3999999999999
20
289.00000000000006
30
0.0
 70
     32
  0
VERTEX
  8
MY3DLAYER
10
175.3999999999998
20
289.00000000000006
30
0.0
 70
     32
  0
VERTEX
  8
MY3DLAYER
10
175.3999999999998
20
319.00000000000006
30
0.0
 70
     32
  0
VERTEX
  8
MY3DLAYER
10
175.29777747886698
20
319.7764571353076
30
0.0
 70
     32
  0
VERTEX
  8
MY3DLAYER
10
174.99807621135312
20
320.50000000000006
30
0.0
 70
     32
  0
VERTEX
  8
MY3DLAYER
10
174.52132034355947
20
321.1213203435597
30
0.0
 70
     32
  0
VERTEX
  8
MY3DLAYER
10
173.8999999999998
20
321.5980762113534
30
0.0
 70
     32
  0
VERTEX
  8
MY3DLAYER
10
173.17645713530737
20
321.8977774788673
30
0.0
 70
     32
  0
VERTEX
  8
MY3DLAYER
10
172.39999999999978
20
322.0000000000001
30
0.0
 70
     32
  0
VERTEX
  8
MY3DLAYER
10
171.62354286469218
20
321.8977774788673
30
0.0
 70
     32
  0
VERTEX
  8
MY3DLAYER
10
170.89999999999975
20
321.5980762113534
30
0.0
 70
     32
  0
VERTEX
  8
MY3DLAYER
10
170.2786796564401
20
321.1213203435597
30
0.0
 70
     32
  0
VERTEX
  8
MY3DLAYER
10
169.80192378864643
20
320.50000000000006
30
0.0
 70
     32
  0
VERTEX
  8
MY3DLAYER
10
169.50222252113258
20
319.7764571353076
30
0.0
 70
     32
  0
VERTEX
  8
MY3DLAYER
10
169.39999999999972
20
319.00000000000006
30
0.0
 70
     32
  0
VERTEX
  8
MY3DLAYER
10
156.3999999999999
20
319.00000000000006
30
0.0
 70
     32
  0
VERTEX
  8
MY3DLAYER
10
156.29777747886706
20
319.7764571353076
30
0.0
 70
     32
  0
VERTEX
  8
MY3DLAYER
10
155.9980762113532
20
320.50000000000006
30
0.0
 70
     32
  0
VERTEX
  8
MY3DLAYER
10
155.52132034355955
20
321.1213203435597
30
0.0
 70
     32
  0
VERTEX
  8
MY3DLAYER
10
154.89999999999986
20
321.5980762113534
30
0.0
 70
     32
  0
VERTEX
  8
MY3DLAYER
10
154.17645713530746
20
321.8977774788673
30
0.0
 70
     32
  0
VERTEX
  8
MY3DLAYER
10
153.39999999999986
20
322.0000000000001
30
0.0
 70
     32
  0
VERTEX
  8
MY3DLAYER
10
152.62354286469224
20
321.8977774788673
30
0.0
 70
     32
  0
VERTEX
  8
MY3DLAYER
10
151.89999999999984
20
321.5980762113534
30
0.0
 70
     32
  0
VERTEX
  8
MY3DLAYER
10
151.27867965644018
20
321.1213203435597
30
0.0
 70
     32
  0
VERTEX
  8
MY3DLAYER
10
150.80192378864652
20
320.50000000000006
30
0.0
 70
     32
  0
VERTEX
  8
MY3DLAYER
10
150.50222252113264
20
319.7764571353076
30
0.0
 70
     32
  0
VERTEX
  8
MY3DLAYER
10
150.3999999999998
20
319.00000000000006
30
0.0
 70
     32
  0
VERTEX
  8
MY3DLAYER
10
150.3999999999998
20
289.00000000000006
30
0.0
 70
     32
  0
VERTEX
  8
MY3DLAYER
10
136.39999999999984
20
289.0
30
0.0
 70
     32
  0
VERTEX
  8
MY3DLAYER
10
134.05052854003893
20
289.15399249527144
30
0.0
 70
     32
  0
VERTEX
  8
MY3DLAYER
10
131.7412571881544
20
289.6133351267968
30
0.0
 70
     32
  0
VERTEX
  8
MY3DLAYER
10
129.51169821742823
20
290.37016841479686
30
0.0
 70
     32
  0
VERTEX
  8
MY3DLAYER
10
127.3999999999998
20
291.4115427318801
30
0.0
 70
     32
  0
VERTEX
  8
MY3DLAYER
10
125.44229427784283
20
292.7196398747578
30
0.0
 70
     32
  0
VERTEX
  8
MY3DLAYER
10
123.67207793864195
20
294.27207793864216
30
0.0
 70
     32
  0
VERTEX
  8
MY3DLAYER
10
122.11963987475751
20
296.04229427784304
30
0.0
 70
     32
  0
VERTEX
  8
MY3DLAYER
10
120.81154273187985
20
298.00000000000006
30
0.0
 70
     32
  0
VERTEX
  8
MY3DLAYER
10
119.7701684147966
20
300.1116982174284
30
0.0
 70
     32
  0
VERTEX
  8
MY3DLAYER
10
119.01333512679652
20
302.34125718815466
30
0.0
 70
     32
  0
VERTEX
  8
MY3DLAYER
10
118.55399249527123
20
304.65052854003915
30
0.0
 70
     32
  0
VERTEX
  8
MY3DLAYER
10
118.39999999999978
20
307.00000000000006
30
0.0
 70
     32
  0
VERTEX
  8
MY3DLAYER
10
118.39999999999978
20
367.00000000000017
30
0.0
 70
     32
  0
VERTEX
  8
MY3DLAYER
10
550.4000000000001
20
367.0
30
0.0
 70
     32
  0
VERTEX
  8
MY3DLAYER
10
550.4000000000001
20
307.0
30
0.0
 70
     32
  0
VERTEX
  8
MY3DLAYER
10
550.2460075047286
20
304.65052854003903
30
0.0
 70
     32
  0
VERTEX
  8
MY3DLAYER
10
549.7866648732031
20
302.34125718815466
30
0.0
 70
     32
  0
VERTEX
  8
MY3DLAYER
10
549.0298315852032
20
300.1116982174284
30
0.0
 70
     32
  0
VERTEX
  8
MY3DLAYER
10
547.9884572681199
20
298.00000000000006
30
0.0
 70
     32
  0
VERTEX
  8
MY3DLAYER
10
546.6803601252424
20
296.04229427784304
30
0.0
 70
     32
  0
VERTEX
  8
MY3DLAYER
10
545.1279220613578
20
294.2720779386422
30
0.0
 70
     32
  0
VERTEX
  8
MY3DLAYER
10
543.357705722157
20
292.71963987475783
30
0.0
 70
     32
  0
VERTEX
  8
MY3DLAYER
10
541.4
20
291.41154273188016
30
0.0
 70
     32
  0
VERTEX
  8
MY3DLAYER
10
539.2883017825718
20
290.3701684147969
30
0.0
 70
     32
  0
VERTEX
  8
MY3DLAYER
10
537.0587428118455
20
289.61333512679687
30
0.0
 70
     32
  0
VERTEX
  8
MY3DLAYER
10
534.749471459961
20
289.1539924952715
30
0.0
 70
     32
  0
VERTEX
  8
MY3DLAYER
10
532.4000000000002
20
289.0000000000001
30
0.0
 70
     32
  0
VERTEX
  8
MY3DLAYER
10
520.4000000000001
20
289.00000000000006
30
0.0
 70
     32
  0
VERTEX
  8
MY3DLAYER
10
520.4000000000001
20
319.00000000000006
30
0.0
 70
     32
  0
VERTEX
  8
MY3DLAYER
10
520.297777478867
20
319.7764571353076
30
0.0
 70
     32
  0
VERTEX
  8
MY3DLAYER
10
519.9980762113531
20
320.50000000000006
30
0.0
 70
     32
  0
VERTEX
  8
MY3DLAYER
10
519.5213203435596
20
321.1213203435597
30
0.0
 70
     32
  0
VERTEX
  8
MY3DLAYER
10
518.8999999999999
20
321.5980762113534
30
0.0
 70
     32
  0
VERTEX
  8
MY3DLAYER
10
518.1764571353074
20
321.8977774788673
30
0.0
 70
     32
  0
VERTEX
  8
MY3DLAYER
10
517.3999999999999
20
322.0000000000001
30
0.0
 70
     32
  0
VERTEX
  8
MY3DLAYER
10
516.6235428646922
20
321.8977774788673
30
0.0
 70
     32
  0
VERTEX
  8
MY3DLAYER
10
515.8999999999997
20
321.5980762113534
30
0.0
 70
     32
  0
VERTEX
  8
MY3DLAYER
10
515.2786796564402
20
321.1213203435597
30
0.0
 70
     32
  0
VERTEX
  8
MY3DLAYER
10
514.8019237886465
20
320.50000000000006
30
0.0
 70
     32
  0
VERTEX
  8
MY3DLAYER
10
514.5022225211326
20
319.7764571353076
30
0.0
 70
     32
  0
VERTEX
  8
MY3DLAYER
10
514.3999999999997
20
319.00000000000006
30
0.0
 70
     32
  0
VERTEX
  8
MY3DLAYER
10
501.39999999999986
20
319.00000000000006
30
0.0
 70
     32
  0
VERTEX
  8
MY3DLAYER
10
501.29777747886703
20
319.7764571353076
30
0.0
 70
     32
  0
VERTEX
  8
MY3DLAYER
10
500.9980762113532
20
320.50000000000006
30
0.0
 70
     32
  0
VERTEX
  8
MY3DLAYER
10
500.5213203435594
20
321.1213203435597
30
0.0
 70
     32
  0
VERTEX
  8
MY3DLAYER
10
499.8999999999998
20
321.5980762113534
30
0.0
 70
     32
  0
VERTEX
  8
MY3DLAYER
10
499.17645713530743
20
321.8977774788673
30
0.0
 70
     32
  0
VERTEX
  8
MY3DLAYER
10
498.3999999999998
20
322.0000000000001
30
0.0
 70
     32
  0
VERTEX
  8
MY3DLAYER
10
497.6235428646922
20
321.8977774788673
30
0.0
 70
     32
  0
VERTEX
  8
MY3DLAYER
10
496.8999999999998
20
321.5980762113534
30
0.0
 70
     32
  0
VERTEX
  8
MY3DLAYER
10
496.2786796564402
20
321.1213203435597
30
0.0
 70
     32
  0
VERTEX
  8
MY3DLAYER
10
495.8019237886465
20
320.50000000000006
30
0.0
 70
     32
  0
VERTEX
  8
MY3DLAYER
10
495.5022225211326
20
319.7764571353076
30
0.0
 70
     32
  0
VERTEX
  8
MY3DLAYER
10
495.39999999999975
20
319.00000000000006
30
0.0
 70
     32
  0
VERTEX
  8
MY3DLAYER
10
495.39999999999975
20
289.00000000000006
30
0.0
 70
     32
  0
SEQEND
  0
POLYLINE
 8
Layer0
 66
     1
70
    8
 10
0.0
 20
 0.0
 30
0.0
  0
VERTEX
  8
MY3DLAYER
10
684.8999999999999
20
300.00000000000006
30
0.0
 70
     32
  0
VERTEX
  8
MY3DLAYER
10
1054.8999999999999
20
300.0
30
0.0
 70
     32
  0
VERTEX
  8
MY3DLAYER
10
1058.163154805501
20
299.7861215343453
30
0.0
 70
     32
  0
VERTEX
  8
MY3DLAYER
10
1061.3704761275628
20
299.14814565722673
30
0.0
 70
     32
  0
VERTEX
  8
MY3DLAYER
10
1064.4670858091272
20
298.0969883127822
30
0.0
 70
     32
  0
VERTEX
  8
MY3DLAYER
10
1067.3999999999999
20
296.65063509461095
30
0.0
 70
     32
  0
VERTEX
  8
MY3DLAYER
10
1070.119035725218
20
294.8338335072809
30
0.0
 70
     32
  0
VERTEX
  8
MY3DLAYER
10
1072.5776695296636
20
292.67766952966366
30
0.0
 70
     32
  0
VERTEX
  8
MY3DLAYER
10
1074.7338335072807
20
290.2190357252181
30
0.0
 70
     32
  0
VERTEX
  8
MY3DLAYER
10
1076.5506350946107
20
287.50000000000006
30
0.0
 70
     32
  0
VERTEX
  8
MY3DLAYER
10
1077.996988312782
20
284.5670858091273
30
0.0
 70
     32
  0
VERTEX
  8
MY3DLAYER
10
1079.0481456572265
20
281.4704761275631
30
0.0
 70
     32
  0
VERTEX
  8
MY3DLAYER
10
1079.6861215343451
20
278.26315480550136
30
0.0
 70
     32
  0
VERTEX
  8
MY3DLAYER
10
1079.8999999999999
20
275.00000000000006
30
0.0
 70
     32
  0
VERTEX
  8
MY3DLAYER
10
1079.8999999999999
20
50.0
30
0.0
 70
     32
  0
VERTEX
  8
MY3DLAYER
10
1079.4722430686904
20
43.47369038899741
30
0.0
 70
     32
  0
VERTEX
  8
MY3DLAYER
10
1078.1962913144532
20
37.059047744873936
30
0.0
 70
     32
  0
VERTEX
  8
MY3DLAYER
10
1076.0939766255642
20
30.865828381745484
30
0.0
 70
     32
  0
VERTEX
  8
MY3DLAYER
10
1073.2012701892218
20
24.99999999999996
30
0.0
 70
     32
  0
VERTEX
  8
MY3DLAYER
10
1069.5676670145615
20
19.561928549563913
30
0.0
 70
     32
  0
VERTEX
  8
MY3DLAYER
10
1065.2553390593273
20
14.644660940672557
30
0.0
 70
     32
  0
VERTEX
  8
MY3DLAYER
10
1060.3380714504358
20
10.332332985438157
30
0.0
 70
     32
  0
VERTEX
  8
MY3DLAYER
10
1054.8999999999999
20
6.698729810777967
30
0.0
 70
     32
  0
VERTEX
  8
MY3DLAYER
10
1049.0341716182543
20
3.8060233744355485
30
0.0
 70
     32
  0
VERTEX
  8
MY3DLAYER
10
1042.8409522551258
20
1.7037086855464467
30
0.0
 70
     32
  0
VERTEX
  8
MY3DLAYER
10
1036.4263096110024
20
0.4277569313093221
30
0.0
 70
     32
  0
VERTEX
  8
MY3DLAYER
10
1029.8999999999999
20
-1.8047785488306544e-13
30
0.0
 70
     32
  0
VERTEX
  8
MY3DLAYER
10
709.8999999999999
20
0.0
30
0.0
 70
     32
  0
VERTEX
  8
MY3DLAYER
10
703.3736903889974
20
0.42775693130948
30
0.0
 70
     32
  0
VERTEX
  8
MY3DLAYER
10
696.9590477448738
20
1.703708685546582
30
0.0
 70
     32
  0
VERTEX
  8
MY3DLAYER
10
690.7658283817453
20
3.8060233744356613
30
0.0
 70
     32
  0
VERTEX
  8
MY3DLAYER
10
684.8999999999999
20
6.698729810778068
30
0.0
 70
     32
  0
VERTEX
  8
MY3DLAYER
10
679.4619285495638
20
10.332332985438248
30
0.0
 70
     32
  0
VERTEX
  8
MY3DLAYER
10
674.5446609406725
20
14.644660940672624
30
0.0
 70
     32
  0
VERTEX
  8
MY3DLAYER
10
670.2323329854381
20
19.561928549563973
30
0.0
 70
     32
  0
VERTEX
  8
MY3DLAYER
10
666.598729810778
20
25.000000000000004
30
0.0
 70
     32
  0
VERTEX
  8
MY3DLAYER
10
663.7060233744355
20
30.865828381745512
30
0.0
 70
     32
  0
VERTEX
  8
MY3DLAYER
10
661.6037086855464
20
37.059047744873965
30
0.0
 70
     32
  0
VERTEX
  8
MY3DLAYER
10
660.3277569313094
20
43.47369038899742
30
0.0
 70
     32
  0
VERTEX
  8
MY3DLAYER
10
659.8999999999999
20
50.0
30
0.0
 70
     32
  0
VERTEX
  8
MY3DLAYER
10
659.8999999999999
20
275.0
30
0.0
 70
     32
  0
VERTEX
  8
MY3DLAYER
10
660.1138784656546
20
278.26315480550124
30
0.0
 70
     32
  0
VERTEX
  8
MY3DLAYER
10
660.7518543427732
20
281.470476127563
30
0.0
 70
     32
  0
VERTEX
  8
MY3DLAYER
10
661.8030116872178
20
284.56708580912726
30
0.0
 70
     32
  0
VERTEX
  8
MY3DLAYER
10
663.2493649053889
20
287.5
30
0.0
 70
     32
  0
VERTEX
  8
MY3DLAYER
10
665.066166492719
20
290.2190357252181
30
0.0
 70
     32
  0
VERTEX
  8
MY3DLAYER
10
667.2223304703363
20
292.6776695296637
30
0.0
 70
     32
  0
VERTEX
  8
MY3DLAYER
10
669.6809642747819
20
294.83383350728093
30
0.0
 70
     32
  0
VERTEX
  8
MY3DLAYER
10
672.3999999999999
20
296.650635094611
30
0.0
 70
     32
  0
VERTEX
  8
MY3DLAYER
10
675.3329141908727
20
298.09698831278223
30
0.0
 70
     32
  0
VERTEX
  8
MY3DLAYER
10
678.4295238724369
20
299.14814565722673
30
0.0
 70
     32
  0
VERTEX
  8
MY3DLAYER
10
681.6368451944986
20
299.78612153434534
30
0.0
 70
     32
  0
VERTEX
  8
MY3DLAYER
10
684.8999999999999
20
300.00000000000006
30
0.0
 70
     32
  0
SEQEND
  0
POLYLINE
 8
Layer0
 66
     1
70
    8
 10
0.0
 20
 0.0
 30
0.0
  0
VERTEX
  8
MY3DLAYER
10
1047.9
20
105.99999999999999
30
1.1392154493479822e-15
 70
     32
  0
VERTEX
  8
MY3DLAYER
10
1047.9
20
244.0
30
4.684703442065714e-14
 70
     32
  0
VERTEX
  8
MY3DLAYER
10
1048.6764571353076
20
244.1022225211328
30
6.596924184766903e-14
 70
     32
  0
VERTEX
  8
MY3DLAYER
10
1049.4
20
244.40192378864668
30
8.443791044380995e-14
 70
     32
  0
VERTEX
  8
MY3DLAYER
10
1050.0213203435596
20
244.87867965644034
30
1.0099443096517078e-13
 70
     32
  0
VERTEX
  8
MY3DLAYER
10
1050.4980762113535
20
245.49999999999997
30
1.145105038991646e-13
 70
     32
  0
VERTEX
  8
MY3DLAYER
10
1050.7977774788674
20
246.22354286469243
30
1.2406503121170642e-13
 70
     32
  0
VERTEX
  8
MY3DLAYER
10
1050.9
20
247.0
30
1.290068876560494e-13
 70
     32
  0
VERTEX
  8
MY3DLAYER
10
1050.7977774788674
20
247.77645713530757
30
1.289992938823155e-13
 70
     32
  0
VERTEX
  8
MY3DLAYER
10
1050.4980762113535
20
248.49999999999997
30
1.2404276739363536e-13
 70
     32
  0
VERTEX
  8
MY3DLAYER
10
1050.0213203435596
20
249.12132034355966
30
1.1447508727916522e-13
 70
     32
  0
VERTEX
  8
MY3DLAYER
10
1049.4
20
249.5980762113533
30
1.0094827512736731e-13
 70
     32
  0
VERTEX
  8
MY3DLAYER
10
1048.6764571353076
20
249.8977774788672
30
8.438416083227259e-14
 70
     32
  0
VERTEX
  8
MY3DLAYER
10
1047.9
20
250.0
30
5.696077246739922e-14
 70
     32
  0
VERTEX
  8
MY3DLAYER
10
1029.9
20
250.0
30
5.696077246739922e-14
 70
     32
  0
VERTEX
  8
MY3DLAYER
10
1029.1235428646924
20
249.8977774788672
30
3.6475670387580745e-14
 70
     32
  0
VERTEX
  8
MY3DLAYER
10
1028.4
20
249.5980762113533
30
1.707271861693827e-14
 70
     32
  0
VERTEX
  8
MY3DLAYER
10
1027.7786796564403
20
249.12132034355966
30
8.834226553638257e-18
 70
     32
  0
VERTEX
  8
MY3DLAYER
10
1027.3019237886467
20
248.50000000000003
30
-1.3553107261770701e-14
 70
     32
  0
VERTEX
  8
MY3DLAYER
10
1027.0022225211328
20
247.77645713530757
30
-2.2688881947773424e-14
 70
     32
  0
VERTEX
  8
MY3DLAYER
10
1026.9
20
247.0
30
-2.6775901884184992e-14
 70
     32
  0
VERTEX
  8
MY3DLAYER
10
1027.0022225211328
20
246.22354286469243
30
-2.5535643416458708e-14
 70
     32
  0
VERTEX
  8
MY3DLAYER
10
1027.3019237886467
20
245.50000000000003
30
-1.905262810954611e-14
 70
     32
  0
VERTEX
  8
MY3DLAYER
10
1027.7786796564403
20
244.87867965644034
30
-7.768662742923909e-15
 70
     32
  0
VERTEX
  8
MY3DLAYER
10
1028.4
20
244.40192378864668
30
7.547269091306989e-15
 70
     32
  0
VERTEX
  8
MY3DLAYER
10
1029.1235428646924
20
244.1022225211328
30
2.5851411949417907e-14
 70
     32
  0
VERTEX
  8
MY3DLAYER
10
1029.9
20
244.0
30
4.5896368744654866e-14
 70
     32
  0
VERTEX
  8
MY3DLAYER
10
1029.9
20
105.99999999999999
30
-4.772679835296205e-13
 70
     32
  0
VERTEX
  8
MY3DLAYER
10
1029.1235428646924
20
105.8977774788672
30
-4.760588480473186e-13
 70
     32
  0
VERTEX
  8
MY3DLAYER
10
1028.4
20
105.59807621135329
30
-4.7497093097506e-13
 70
     32
  0
VERTEX
  8
MY3DLAYER
10
1027.7786796564403
20
105.12132034355965
30
-4.740783720634511e-13
 70
     32
  0
VERTEX
  8
MY3DLAYER
10
1027.3019237886467
20
104.49999999999999
30
-4.734419977272948e-13
 70
     32
  0
VERTEX
  8
MY3DLAYER
10
1027.0022225211328
20
103.77645713530755
30
-4.731051758259417e-13
 70
     32
  0
VERTEX
  8
MY3DLAYER
10
1026.9
20
102.99999999999999
30
-4.730908602153446e-13
 70
     32
  0
VERTEX
  8
MY3DLAYER
10
1027.0022225211328
20
102.22354286469243
30
-4.73400026480708e-13
 70
     32
  0
VERTEX
  8
MY3DLAYER
10
1027.3019237886467
20
101.5
30
-4.740116054519688e-13
 70
     32
  0
VERTEX
  8
MY3DLAYER
10
1027.7786796564403
20
100.87867965644035
30
-4.748839190329175e-13
 70
     32
  0
VERTEX
  8
MY3DLAYER
10
1028.4
20
100.40192378864668
30
-4.75957520494579e-13
 70
     32
  0
VERTEX
  8
MY3DLAYER
10
1029.1235428646924
20
100.1022225211328
30
-4.771592456715513e-13
 70
     32
  0
VERTEX
  8
MY3DLAYER
10
1029.9
20
100.0
30
5.696077246739922e-14
 70
     32
  0
VERTEX
  8
MY3DLAYER
10
1047.9
20
100.0
30
0.0
 70
     32
  0
VERTEX
  8
MY3DLAYER
10
1048.6764571353076
20
100.10222252113279
30
1.1392154493479822e-15
 70
     32
  0
VERTEX
  8
MY3DLAYER
10
1049.4
20
100.40192378864668
30
1.1392154493479822e-15
 70
     32
  0
VERTEX
  8
MY3DLAYER
10
1050.0213203435596
20
100.87867965644035
30
1.1392154493479822e-15
 70
     32
  0
VERTEX
  8
MY3DLAYER
10
1050.4980762113535
20
101.5
30
1.1392154493479822e-15
 70
     32
  0
VERTEX
  8
MY3DLAYER
10
1050.7977774788674
20
102.22354286469243
30
1.1392154493479822e-15
 70
     32
  0
VERTEX
  8
MY3DLAYER
10
1050.9
20
102.99999999999999
30
1.1392154493479822e-15
 70
     32
  0
VERTEX
  8
MY3DLAYER
10
1050.7977774788674
20
103.77645713530755
30
1.1392154493479822e-15
 70
     32
  0
VERTEX
  8
MY3DLAYER
10
1050.4980762113535
20
104.49999999999999
30
1.1392154493479822e-15
 70
     32
  0
VERTEX
  8
MY3DLAYER
10
1050.0213203435596
20
105.12132034355965
30
1.1392154493479822e-15
 70
     32
  0
VERTEX
  8
MY3DLAYER
10
1049.4
20
105.59807621135329
30
1.1392154493479822e-15
 70
     32
  0
VERTEX
  8
MY3DLAYER
10
1048.6764571353076
20
105.8977774788672
30
1.1392154493479822e-15
 70
     32
  0
VERTEX
  8
MY3DLAYER
10
1047.9
20
105.99999999999999
30
1.1392154493479822e-15
 70
     32
  0
SEQEND
  0
POLYLINE
 8
Layer0
 66
     1
70
    8
 10
0.0
 20
 0.0
 30
0.0
  0
VERTEX
  8
MY3DLAYER
10
691.9
20
100.0
30
5.696077246739922e-14
 70
     32
  0
VERTEX
  8
MY3DLAYER
10
709.9
20
100.0
30
0.0
 70
     32
  0
VERTEX
  8
MY3DLAYER
10
710.6764571353076
20
100.10222252113279
30
5.814745522712957e-16
 70
     32
  0
VERTEX
  8
MY3DLAYER
10
711.4
20
100.40192378864668
30
5.814745522712957e-16
 70
     32
  0
VERTEX
  8
MY3DLAYER
10
712.0213203435596
20
100.87867965644035
30
5.814745522712957e-16
 70
     32
  0
VERTEX
  8
MY3DLAYER
10
712.4980762113534
20
101.5
30
5.814745522712957e-16
 70
     32
  0
VERTEX
  8
MY3DLAYER
10
712.7977774788671
20
102.22354286469243
30
5.814745522712957e-16
 70
     32
  0
VERTEX
  8
MY3DLAYER
10
712.9
20
102.99999999999999
30
5.814745522712957e-16
 70
     32
  0
VERTEX
  8
MY3DLAYER
10
712.7977774788671
20
103.77645713530755
30
5.814745522712957e-16
 70
     32
  0
VERTEX
  8
MY3DLAYER
10
712.4980762113534
20
104.49999999999999
30
5.814745522712957e-16
 70
     32
  0
VERTEX
  8
MY3DLAYER
10
712.0213203435596
20
105.12132034355965
30
5.814745522712957e-16
 70
     32
  0
VERTEX
  8
MY3DLAYER
10
711.4
20
105.59807621135329
30
5.814745522712957e-16
 70
     32
  0
VERTEX
  8
MY3DLAYER
10
710.6764571353076
20
105.8977774788672
30
5.814745522712957e-16
 70
     32
  0
VERTEX
  8
MY3DLAYER
10
709.9
20
105.99999999999999
30
5.814745522712957e-16
 70
     32
  0
VERTEX
  8
MY3DLAYER
10
709.9
20
244.0
30
5.582155701805123e-14
 70
     32
  0
VERTEX
  8
MY3DLAYER
10
710.6764571353076
20
244.1022225211328
30
5.582155701805123e-14
 70
     32
  0
VERTEX
  8
MY3DLAYER
10
711.4
20
244.40192378864668
30
5.582155701805123e-14
 70
     32
  0
VERTEX
  8
MY3DLAYER
10
712.0213203435596
20
244.87867965644034
30
5.582155701805123e-14
 70
     32
  0
VERTEX
  8
MY3DLAYER
10
712.4980762113534
20
245.49999999999997
30
5.582155701805123e-14
 70
     32
  0
VERTEX
  8
MY3DLAYER
10
712.7977774788671
20
246.22354286469243
30
5.582155701805123e-14
 70
     32
  0
VERTEX
  8
MY3DLAYER
10
712.9
20
247.0
30
5.582155701805123e-14
 70
     32
  0
VERTEX
  8
MY3DLAYER
10
712.7977774788671
20
247.77645713530757
30
5.582155701805123e-14
 70
     32
  0
VERTEX
  8
MY3DLAYER
10
712.4980762113534
20
248.49999999999997
30
5.582155701805123e-14
 70
     32
  0
VERTEX
  8
MY3DLAYER
10
712.0213203435596
20
249.12132034355966
30
5.582155701805123e-14
 70
     32
  0
VERTEX
  8
MY3DLAYER
10
711.4
20
249.5980762113533
30
5.582155701805123e-14
 70
     32
  0
VERTEX
  8
MY3DLAYER
10
710.6764571353076
20
249.8977774788672
30
5.582155701805123e-14
 70
     32
  0
VERTEX
  8
MY3DLAYER
10
709.9
20
250.0
30
5.696077246739922e-14
 70
     32
  0
VERTEX
  8
MY3DLAYER
10
691.9
20
250.0
30
5.696077246739922e-14
 70
     32
  0
VERTEX
  8
MY3DLAYER
10
691.1235428646925
20
249.8977774788672
30
5.873951567437503e-14
 70
     32
  0
VERTEX
  8
MY3DLAYER
10
690.4
20
249.5980762113533
30
5.982743274663365e-14
 70
     32
  0
VERTEX
  8
MY3DLAYER
10
689.7786796564404
20
249.12132034355966
30
6.071999165824255e-14
 70
     32
  0
VERTEX
  8
MY3DLAYER
10
689.3019237886467
20
248.50000000000003
30
6.135636599439892e-14
 70
     32
  0
VERTEX
  8
MY3DLAYER
10
689.0022225211328
20
247.77645713530757
30
6.169318789575201e-14
 70
     32
  0
VERTEX
  8
MY3DLAYER
10
688.9
20
247.0
30
6.170750350634914e-14
 70
     32
  0
VERTEX
  8
MY3DLAYER
10
689.0022225211328
20
246.22354286469243
30
6.139833724098577e-14
 70
     32
  0
VERTEX
  8
MY3DLAYER
10
689.3019237886467
20
245.50000000000003
30
6.0786758269725e-14
 70
     32
  0
VERTEX
  8
MY3DLAYER
10
689.7786796564404
20
244.87867965644034
30
5.99144446887762e-14
 70
     32
  0
VERTEX
  8
MY3DLAYER
10
690.4
20
244.40192378864668
30
5.884084322711472e-14
 70
     32
  0
VERTEX
  8
MY3DLAYER
10
691.1235428646925
20
244.1022225211328
30
5.763911805014244e-14
 70
     32
  0
VERTEX
  8
MY3DLAYER
10
691.9
20
244.0
30
5.6391164742725295e-14
 70
     32
  0
VERTEX
  8
MY3DLAYER
10
691.9
20
105.99999999999999
30
5.695483905360045e-14
 70
     32
  0
VERTEX
  8
MY3DLAYER
10
691.1235428646925
20
105.8977774788672
30
5.695483905360045e-14
 70
     32
  0
VERTEX
  8
MY3DLAYER
10
690.4
20
105.59807621135329
30
5.695483905360045e-14
 70
     32
  0
VERTEX
  8
MY3DLAYER
10
689.7786796564404
20
105.12132034355965
30
5.695483905360045e-14
 70
     32
  0
VERTEX
  8
MY3DLAYER
10
689.3019237886467
20
104.49999999999999
30
5.695483905360045e-14
 70
     32
  0
VERTEX
  8
MY3DLAYER
10
689.0022225211328
20
103.77645713530755
30
5.695483905360045e-14
 70
     32
  0
VERTEX
  8
MY3DLAYER
10
688.9
20
102.99999999999999
30
5.695483905360045e-14
 70
     32
  0
VERTEX
  8
MY3DLAYER
10
689.0022225211328
20
102.22354286469243
30
5.695483905360045e-14
 70
     32
  0
VERTEX
  8
MY3DLAYER
10
689.3019237886467
20
101.5
30
5.695483905360045e-14
 70
     32
  0
VERTEX
  8
MY3DLAYER
10
689.7786796564404
20
100.87867965644035
30
5.695483905360045e-14
 70
     32
  0
VERTEX
  8
MY3DLAYER
10
690.4
20
100.40192378864668
30
5.695483905360045e-14
 70
     32
  0
VERTEX
  8
MY3DLAYER
10
691.1235428646925
20
100.1022225211328
30
5.695483905360045e-14
 70
     32
  0
VERTEX
  8
MY3DLAYER
10
691.9
20
100.0
30
5.696077246739922e-14
 70
     32
  0
SEQEND
  0
POLYLINE
 8
Layer0
 66
     1
70
    8
 10
0.0
 20
 0.0
 30
0.0
  0
VERTEX
  8
MY3DLAYER
10
770.6764571353076
20
93.89777747886721
30
0.0
 70
     32
  0
VERTEX
  8
MY3DLAYER
10
769.9
20
94.00000000000001
30
0.0
 70
     32
  0
VERTEX
  8
MY3DLAYER
10
769.1235428646924
20
93.89777747886721
30
0.0
 70
     32
  0
VERTEX
  8
MY3DLAYER
10
768.4
20
93.59807621135332
30
0.0
 70
     32
  0
VERTEX
  8
MY3DLAYER
10
767.7786796564403
20
93.12132034355965
30
0.0
 70
     32
  0
VERTEX
  8
MY3DLAYER
10
767.3019237886466
20
92.49999999999999
30
0.0
 70
     32
  0
VERTEX
  8
MY3DLAYER
10
767.0022225211328
20
91.77645713530754
30
0.0
 70
     32
  0
VERTEX
  8
MY3DLAYER
10
766.9
20
90.99999999999997
30
0.0
 70
     32
  0
VERTEX
  8
MY3DLAYER
10
767.0022225211328
20
90.2235428646924
30
0.0
 70
     32
  0
VERTEX
  8
MY3DLAYER
10
767.3019237886466
20
89.49999999999994
30
0.0
 70
     32
  0
VERTEX
  8
MY3DLAYER
10
767.7786796564403
20
88.8786796564403
30
0.0
 70
     32
  0
VERTEX
  8
MY3DLAYER
10
768.4
20
88.40192378864663
30
0.0
 70
     32
  0
VERTEX
  8
MY3DLAYER
10
769.1235428646924
20
88.10222252113273
30
0.0
 70
     32
  0
VERTEX
  8
MY3DLAYER
10
769.9
20
87.99999999999993
30
0.0
 70
     32
  0
VERTEX
  8
MY3DLAYER
10
770.6764571353076
20
88.10222252113273
30
0.0
 70
     32
  0
VERTEX
  8
MY3DLAYER
10
771.4
20
88.40192378864663
30
0.0
 70
     32
  0
VERTEX
  8
MY3DLAYER
10
772.0213203435596
20
88.8786796564403
30
0.0
 70
     32
  0
VERTEX
  8
MY3DLAYER
10
772.4980762113534
20
89.49999999999994
30
0.0
 70
     32
  0
VERTEX
  8
MY3DLAYER
10
772.7977774788671
20
90.22354286469239
30
0.0
 70
     32
  0
VERTEX
  8
MY3DLAYER
10
772.9
20
90.99999999999997
30
0.0
 70
     32
  0
VERTEX
  8
MY3DLAYER
10
772.7977774788671
20
91.77645713530754
30
0.0
 70
     32
  0
VERTEX
  8
MY3DLAYER
10
772.4980762113534
20
92.49999999999999
30
0.0
 70
     32
  0
VERTEX
  8
MY3DLAYER
10
772.0213203435596
20
93.12132034355965
30
0.0
 70
     32
  0
VERTEX
  8
MY3DLAYER
10
771.4
20
93.59807621135332
30
0.0
 70
     32
  0
VERTEX
  8
MY3DLAYER
10
770.6764571353076
20
93.89777747886721
30
0.0
 70
     32
  0
SEQEND
  0
POLYLINE
 8
Layer0
 66
     1
70
    8
 10
0.0
 20
 0.0
 30
0.0
  0
VERTEX
  8
MY3DLAYER
10
971.4
20
93.5980762113532
30
0.0
 70
     32
  0
VERTEX
  8
MY3DLAYER
10
970.6764571353076
20
93.8977774788671
30
0.0
 70
     32
  0
VERTEX
  8
MY3DLAYER
10
969.9
20
93.9999999999999
30
0.0
 70
     32
  0
VERTEX
  8
MY3DLAYER
10
969.1235428646924
20
93.8977774788671
30
0.0
 70
     32
  0
VERTEX
  8
MY3DLAYER
10
968.4
20
93.5980762113532
30
0.0
 70
     32
  0
VERTEX
  8
MY3DLAYER
10
967.7786796564403
20
93.12132034355953
30
0.0
 70
     32
  0
VERTEX
  8
MY3DLAYER
10
967.3019237886466
20
92.49999999999987
30
0.0
 70
     32
  0
VERTEX
  8
MY3DLAYER
10
967.0022225211328
20
91.77645713530742
30
0.0
 70
     32
  0
VERTEX
  8
MY3DLAYER
10
966.8999999999999
20
90.99999999999986
30
0.0
 70
     32
  0
VERTEX
  8
MY3DLAYER
10
967.0022225211328
20
90.22354286469229
30
0.0
 70
     32
  0
VERTEX
  8
MY3DLAYER
10
967.3019237886466
20
89.49999999999983
30
0.0
 70
     32
  0
VERTEX
  8
MY3DLAYER
10
967.7786796564403
20
88.87867965644018
30
0.0
 70
     32
  0
VERTEX
  8
MY3DLAYER
10
968.4
20
88.40192378864651
30
0.0
 70
     32
  0
VERTEX
  8
MY3DLAYER
10
969.1235428646924
20
88.10222252113262
30
0.0
 70
     32
  0
VERTEX
  8
MY3DLAYER
10
969.9
20
87.99999999999982
30
0.0
 70
     32
  0
VERTEX
  8
MY3DLAYER
10
970.6764571353076
20
88.10222252113262
30
0.0
 70
     32
  0
VERTEX
  8
MY3DLAYER
10
971.4
20
88.40192378864651
30
0.0
 70
     32
  0
VERTEX
  8
MY3DLAYER
10
972.0213203435595
20
88.87867965644018
30
0.0
 70
     32
  0
VERTEX
  8
MY3DLAYER
10
972.4980762113534
20
89.49999999999983
30
0.0
 70
     32
  0
VERTEX
  8
MY3DLAYER
10
972.7977774788671
20
90.22354286469228
30
0.0
 70
     32
  0
VERTEX
  8
MY3DLAYER
10
972.9
20
90.99999999999986
30
0.0
 70
     32
  0
VERTEX
  8
MY3DLAYER
10
972.7977774788671
20
91.77645713530742
30
0.0
 70
     32
  0
VERTEX
  8
MY3DLAYER
10
972.4980762113534
20
92.49999999999987
30
0.0
 70
     32
  0
VERTEX
  8
MY3DLAYER
10
972.0213203435595
20
93.12132034355953
30
0.0
 70
     32
  0
VERTEX
  8
MY3DLAYER
10
971.4
20
93.5980762113532
30
0.0
 70
     32
  0
SEQEND
  0
POLYLINE
 8
Layer0
 66
     1
70
    8
 10
0.0
 20
 0.0
 30
0.0
  0
VERTEX
  8
MY3DLAYER
10
866.3999999999999
20
263.93782217350895
30
0.0
 70
     32
  0
VERTEX
  8
MY3DLAYER
10
868.0882666842822
20
263.23851921597657
30
0.0
 70
     32
  0
VERTEX
  8
MY3DLAYER
10
869.9
20
263.0
30
0.0
 70
     32
  0
VERTEX
  8
MY3DLAYER
10
871.7117333157177
20
263.23851921597657
30
0.0
 70
     32
  0
VERTEX
  8
MY3DLAYER
10
873.3999999999999
20
263.93782217350895
30
0.0
 70
     32
  0
VERTEX
  8
MY3DLAYER
10
874.8497474683057
20
265.0502525316942
30
0.0
 70
     32
  0
VERTEX
  8
MY3DLAYER
10
875.962177826491
20
266.50000000000006
30
0.0
 70
     32
  0
VERTEX
  8
MY3DLAYER
10
876.6614807840235
20
268.1882666842824
30
0.0
 70
     32
  0
VERTEX
  8
MY3DLAYER
10
876.9
20
270.00000000000006
30
0.0
 70
     32
  0
VERTEX
  8
MY3DLAYER
10
876.6614807840235
20
271.8117333157177
30
0.0
 70
     32
  0
VERTEX
  8
MY3DLAYER
10
875.962177826491
20
273.50000000000006
30
0.0
 70
     32
  0
VERTEX
  8
MY3DLAYER
10
874.8497474683057
20
274.9497474683059
30
0.0
 70
     32
  0
VERTEX
  8
MY3DLAYER
10
873.4000000000001
20
276.0621778264911
30
0.0
 70
     32
  0
VERTEX
  8
MY3DLAYER
10
871.7117333157177
20
276.76148078402355
30
0.0
 70
     32
  0
VERTEX
  8
MY3DLAYER
10
869.9
20
277.00000000000006
30
0.0
 70
     32
  0
VERTEX
  8
MY3DLAYER
10
868.0882666842822
20
276.76148078402355
30
0.0
 70
     32
  0
VERTEX
  8
MY3DLAYER
10
866.4000000000001
20
276.0621778264911
30
0.0
 70
     32
  0
VERTEX
  8
MY3DLAYER
10
864.9502525316942
20
274.9497474683059
30
0.0
 70
     32
  0
VERTEX
  8
MY3DLAYER
10
863.8378221735089
20
273.50000000000006
30
0.0
 70
     32
  0
VERTEX
  8
MY3DLAYER
10
863.1385192159764
20
271.8117333157177
30
0.0
 70
     32
  0
VERTEX
  8
MY3DLAYER
10
862.9
20
270.00000000000006
30
0.0
 70
     32
  0
VERTEX
  8
MY3DLAYER
10
863.1385192159764
20
268.1882666842824
30
0.0
 70
     32
  0
VERTEX
  8
MY3DLAYER
10
863.8378221735089
20
266.50000000000006
30
0.0
 70
     32
  0
VERTEX
  8
MY3DLAYER
10
864.9502525316942
20
265.0502525316942
30
0.0
 70
     32
  0
VERTEX
  8
MY3DLAYER
10
866.3999999999999
20
263.93782217350895
30
0.0
 70
     32
  0
SEQEND
  0
LINE
 8
Layer0
10
50.0
20
88.64360799239853
30
0.0
11
48.96472381958991
21
88.5073112975548
31
0.0
  0
LINE
 8
Layer0
10
53.46410161513776
20
86.64360799239851
30
0.0
11
52.8284271247462
21
87.47203511714473
31
0.0
  0
LINE
 8
Layer0
10
51.03527618041008
20
88.5073112975548
30
0.0
11
50.0
21
88.64360799239853
31
0.0
  0
LINE
 8
Layer0
10
52.8284271247462
20
87.47203511714473
30
0.0
11
52.00000000000001
21
88.10770960753628
31
0.0
  0
LINE
 8
Layer0
10
52.00000000000001
20
88.10770960753628
30
0.0
11
51.03527618041008
21
88.5073112975548
31
0.0
  0
LINE
 8
Layer0
10
53.86370330515628
20
85.67888417280861
30
0.0
11
53.46410161513776
21
86.64360799239851
31
0.0
  0
LINE
 8
Layer0
10
54.0
20
84.64360799239853
30
0.0
11
53.86370330515628
21
85.67888417280861
31
0.0
  0
POLYLINE
 8
Component#1
 66
     1
70
    8
 10
0.0
 20
 0.0
 30
0.0
  0
VERTEX
  8
MY3DLAYER
10
425.4
20
220.0
30
0.0
 70
     32
  0
VERTEX
  8
MY3DLAYER
10
407.3999999999999
20
220.0
30
0.0
 70
     32
  0
VERTEX
  8
MY3DLAYER
10
406.6235428646924
20
220.1022225211328
30
0.0
 70
     32
  0
VERTEX
  8
MY3DLAYER
10
405.9
20
220.40192378864668
30
0.0
 70
     32
  0
VERTEX
  8
MY3DLAYER
10
405.2786796564403
20
220.87867965644034
30
0.0
 70
     32
  0
VERTEX
  8
MY3DLAYER
10
404.80192378864666
20
221.49999999999997
30
0.0
 70
     32
  0
VERTEX
  8
MY3DLAYER
10
404.50222252113275
20
222.22354286469243
30
0.0
 70
     32
  0
VERTEX
  8
MY3DLAYER
10
404.4
20
223.0
30
0.0
 70
     32
  0
VERTEX
  8
MY3DLAYER
10
404.50222252113275
20
223.77645713530757
30
0.0
 70
     32
  0
VERTEX
  8
MY3DLAYER
10
404.80192378864666
20
224.49999999999997
30
0.0
 70
     32
  0
VERTEX
  8
MY3DLAYER
10
405.2786796564403
20
225.12132034355963
30
0.0
 70
     32
  0
VERTEX
  8
MY3DLAYER
10
405.9
20
225.5980762113533
30
0.0
 70
     32
  0
VERTEX
  8
MY3DLAYER
10
406.6235428646924
20
225.8977774788672
30
0.0
 70
     32
  0
VERTEX
  8
MY3DLAYER
10
407.3999999999999
20
226.0
30
0.0
 70
     32
  0
VERTEX
  8
MY3DLAYER
10
407.3999999999999
20
250.0
30
0.0
 70
     32
  0
VERTEX
  8
MY3DLAYER
10
325.4
20
250.0
30
0.0
 70
     32
  0
VERTEX
  8
MY3DLAYER
10
325.4
20
25.0
30
0.0
 70
     32
  0
VERTEX
  8
MY3DLAYER
10
325.61387846565475
20
21.73684519449871
30
0.0
 70
     32
  0
VERTEX
  8
MY3DLAYER
10
326.25185434277324
20
18.529523872436982
30
0.0
 70
     32
  0
VERTEX
  8
MY3DLAYER
10
327.3030116872178
20
15.432914190872756
30
0.0
 70
     32
  0
VERTEX
  8
MY3DLAYER
10
328.74936490538903
20
12.500000000000002
30
0.0
 70
     32
  0
VERTEX
  8
MY3DLAYER
10
330.5661664927191
20
9.780964274781986
30
0.0
 70
     32
  0
VERTEX
  8
MY3DLAYER
10
332.7223304703363
20
7.322330470336312
30
0.0
 70
     32
  0
VERTEX
  8
MY3DLAYER
10
335.18096427478196
20
5.166166492719124
30
0.0
 70
     32
  0
VERTEX
  8
MY3DLAYER
10
337.9
20
3.349364905389034
30
0.0
 70
     32
  0
VERTEX
  8
MY3DLAYER
10
340.8329141908727
20
1.9030116872178306
30
0.0
 70
     32
  0
VERTEX
  8
MY3DLAYER
10
343.92952387243696
20
0.851854342773291
30
0.0
 70
     32
  0
VERTEX
  8
MY3DLAYER
10
347.13684519449873
20
0.21387846565474
30
0.0
 70
     32
  0
VERTEX
  8
MY3DLAYER
10
350.4
20
0.0
30
0.0
 70
     32
  0
VERTEX
  8
MY3DLAYER
10
500.4
20
0.0
30
0.0
 70
     32
  0
VERTEX
  8
MY3DLAYER
10
503.6631548055013
20
0.21387846565474
30
0.0
 70
     32
  0
VERTEX
  8
MY3DLAYER
10
506.870476127563
20
0.851854342773291
30
0.0
 70
     32
  0
VERTEX
  8
MY3DLAYER
10
509.96708580912724
20
1.9030116872178306
30
0.0
 70
     32
  0
VERTEX
  8
MY3DLAYER
10
512.9
20
3.349364905389034
30
0.0
 70
     32
  0
VERTEX
  8
MY3DLAYER
10
515.619035725218
20
5.166166492719124
30
0.0
 70
     32
  0
VERTEX
  8
MY3DLAYER
10
518.0776695296637
20
7.322330470336312
30
0.0
 70
     32
  0
VERTEX
  8
MY3DLAYER
10
520.2338335072808
20
9.780964274781986
30
0.0
 70
     32
  0
VERTEX
  8
MY3DLAYER
10
522.0506350946109
20
12.500000000000002
30
0.0
 70
     32
  0
VERTEX
  8
MY3DLAYER
10
523.4969883127822
20
15.432914190872756
30
0.0
 70
     32
  0
VERTEX
  8
MY3DLAYER
10
524.5481456572267
20
18.529523872436982
30
0.0
 70
     32
  0
VERTEX
  8
MY3DLAYER
10
525.1861215343453
20
21.73684519449871
30
0.0
 70
     32
  0
VERTEX
  8
MY3DLAYER
10
525.4
20
25.0
30
0.0
 70
     32
  0
VERTEX
  8
MY3DLAYER
10
525.4
20
89.01923788646685
30
0.0
 70
     32
  0
VERTEX
  8
MY3DLAYER
10
525.3600619268483
20
90.84957386616719
30
0.0
 70
     32
  0
VERTEX
  8
MY3DLAYER
10
525.2403237317853
20
92.67642569730066
30
0.0
 70
     32
  0
VERTEX
  8
MY3DLAYER
10
525.0410133432712
20
94.49631586357526
30
0.0
 70
     32
  0
VERTEX
  8
MY3DLAYER
10
524.7625101599582
20
96.30578010062365
30
0.0
 70
     32
  0
VERTEX
  8
MY3DLAYER
10
524.4053443284848
20
98.10137399042743
30
0.0
 70
     32
  0
VERTEX
  8
MY3DLAYER
10
523.9701957343113
20
99.87967951796244
30
0.0
 70
     32
  0
VERTEX
  8
MY3DLAYER
10
523.4578927075191
20
101.63731157758474
30
0.0
 70
     32
  0
VERTEX
  8
MY3DLAYER
10
522.869410446037
20
103.37092441677157
30
0.0
 70
     32
  0
VERTEX
  8
MY3DLAYER
10
522.2058691592966
20
105.07721800495143
30
0.0
 70
     32
  0
VERTEX
  8
MY3DLAYER
10
521.4685319358508
20
106.75294431529984
30
0.0
 70
     32
  0
VERTEX
  8
MY3DLAYER
10
520.6588023390118
20
108.39491350754297
30
0.0
 70
     32
  0
VERTEX
  8
MY3DLAYER
10
519.7782217350893
20
109.99999999999999
30
0.0
 70
     32
  0
VERTEX
  8
MY3DLAYER
10
512.7851921597652
20
126.8826668428235
30
0.0
 70
     32
  0
VERTEX
  8
MY3DLAYER
10
510.4
20
145.0
30
0.0
 70
     32
  0
VERTEX
  8
MY3DLAYER
10
512.7851921597652
20
163.11733315717646
30
0.0
 70
     32
  0
VERTEX
  8
MY3DLAYER
10
519.7782217350893
20
180.0
30
0.0
 70
     32
  0
VERTEX
  8
MY3DLAYER
10
525.4
20
187.32644407531882
30
0.0
 70
     32
  0
VERTEX
  8
MY3DLAYER
10
530.9025253169417
20
194.49747468305833
30
0.0
 70
     32
  0
VERTEX
  8
MY3DLAYER
10
538.073555924681
20
200.0
30
0.0
 70
     32
  0
VERTEX
  8
MY3DLAYER
10
545.4
20
205.62177826491072
30
0.0
 70
     32
  0
VERTEX
  8
MY3DLAYER
10
562.2826668428235
20
212.6148078402348
30
0.0
 70
     32
  0
VERTEX
  8
MY3DLAYER
10
580.4
20
215.0
30
0.0
 70
     32
  0
VERTEX
  8
MY3DLAYER
10
598.5173331571764
20
212.6148078402348
30
0.0
 70
     32
  0
VERTEX
  8
MY3DLAYER
10
615.3999999999999
20
205.62177826491072
30
0.0
 70
     32
  0
VERTEX
  8
MY3DLAYER
10
617.506398088991
20
204.63954870489113
30
0.0
 70
     32
  0
VERTEX
  8
MY3DLAYER
10
619.7513576311076
20
204.03801360854044
30
0.0
 70
     32
  0
VERTEX
  8
MY3DLAYER
10
622.0666666666666
20
203.83545031536988
30
0.0
 70
     32
  0
VERTEX
  8
MY3DLAYER
10
624.3819757022256
20
204.03801360854044
30
0.0
 70
     32
  0
VERTEX
  8
MY3DLAYER
10
626.6269352443422
20
204.6395487048911
30
0.0
 70
     32
  0
VERTEX
  8
MY3DLAYER
10
628.7333333333332
20
205.62177826491072
30
0.0
 70
     32
  0
VERTEX
  8
MY3DLAYER
10
630.6371681291538
20
206.95485774045014
30
0.0
 70
     32
  0
VERTEX
  8
MY3DLAYER
10
632.2805925749196
20
208.59828218621604
30
0.0
 70
     32
  0
VERTEX
  8
MY3DLAYER
10
633.6136720504591
20
210.50211698203654
30
0.0
 70
     32
  0
VERTEX
  8
MY3DLAYER
10
634.5959016104787
20
212.60851507102763
30
0.0
 70
     32
  0
VERTEX
  8
MY3DLAYER
10
635.1974367068294
20
214.85347461314416
30
0.0
 70
     32
  0
VERTEX
  8
MY3DLAYER
10
635.4
20
217.16878364870323
30
0.0
 70
     32
  0
VERTEX
  8
MY3DLAYER
10
635.4
20
250.0
30
0.0
 70
     32
  0
VERTEX
  8
MY3DLAYER
10
575.4
20
250.0
30
0.0
 70
     32
  0
VERTEX
  8
MY3DLAYER
10
574.6235428646924
20
250.10222252113277
30
0.0
 70
     32
  0
VERTEX
  8
MY3DLAYER
10
573.9
20
250.40192378864668
30
0.0
 70
     32
  0
VERTEX
  8
MY3DLAYER
10
573.2786796564404
20
250.87867965644034
30
0.0
 70
     32
  0
VERTEX
  8
MY3DLAYER
10
572.8019237886466
20
251.49999999999997
30
0.0
 70
     32
  0
VERTEX
  8
MY3DLAYER
10
572.5022225211328
20
252.22354286469243
30
0.0
 70
     32
  0
VERTEX
  8
MY3DLAYER
10
572.4
20
253.0
30
0.0
 70
     32
  0
VERTEX
  8
MY3DLAYER
10
572.5022225211328
20
253.77645713530754
30
0.0
 70
     32
  0
VERTEX
  8
MY3DLAYER
10
572.8019237886466
20
254.49999999999997
30
0.0
 70
     32
  0
VERTEX
  8
MY3DLAYER
10
573.2786796564404
20
255.12132034355963
30
0.0
 70
     32
  0
VERTEX
  8
MY3DLAYER
10
573.9
20
255.5980762113533
30
0.0
 70
     32
  0
VERTEX
  8
MY3DLAYER
10
574.6235428646924
20
255.8977774788672
30
0.0
 70
     32
  0
VERTEX
  8
MY3DLAYER
10
575.4
20
255.99999999999997
30
0.0
 70
     32
  0
VERTEX
  8
MY3DLAYER
10
575.4
20
268.0
30
0.0
 70
     32
  0
VERTEX
  8
MY3DLAYER
10
425.4
20
268.0
30
0.0
 70
     32
  0
VERTEX
  8
MY3DLAYER
10
425.4
20
226.0
30
0.0
 70
     32
  0
VERTEX
  8
MY3DLAYER
10
426.1764571353076
20
225.8977774788672
30
0.0
 70
     32
  0
VERTEX
  8
MY3DLAYER
10
426.90000000000003
20
225.5980762113533
30
0.0
 70
     32
  0
VERTEX
  8
MY3DLAYER
10
427.5213203435596
20
225.12132034355963
30
0.0
 70
     32
  0
VERTEX
  8
MY3DLAYER
10
427.99807621135335
20
224.50000000000003
30
0.0
 70
     32
  0
VERTEX
  8
MY3DLAYER
10
428.2977774788672
20
223.77645713530757
30
0.0
 70
     32
  0
VERTEX
  8
MY3DLAYER
10
428.40000000000003
20
223.0
30
0.0
 70
     32
  0
VERTEX
  8
MY3DLAYER
10
428.2977774788672
20
222.22354286469243
30
0.0
 70
     32
  0
VERTEX
  8
MY3DLAYER
10
427.99807621135335
20
221.50000000000003
30
0.0
 70
     32
  0
VERTEX
  8
MY3DLAYER
10
427.5213203435596
20
220.87867965644034
30
0.0
 70
     32
  0
VERTEX
  8
MY3DLAYER
10
426.90000000000003
20
220.40192378864668
30
0.0
 70
     32
  0
VERTEX
  8
MY3DLAYER
10
426.1764571353076
20
220.1022225211328
30
0.0
 70
     32
  0
VERTEX
  8
MY3DLAYER
10
425.4
20
220.0
30
0.0
 70
     32
  0
SEQEND
  0
POLYLINE
 8
Component#1
 66
     1
70
    8
 10
0.0
 20
 0.0
 30
0.0
  0
VERTEX
  8
MY3DLAYER
10
486.17645713530754
20
12.102222521132802
30
0.0
 70
     32
  0
VERTEX
  8
MY3DLAYER
10
485.4
20
12.000000000000005
30
0.0
 70
     32
  0
VERTEX
  8
MY3DLAYER
10
484.62354286469247
20
12.102222521132802
30
0.0
 70
     32
  0
VERTEX
  8
MY3DLAYER
10
483.90000000000003
20
12.40192378864669
30
0.0
 70
     32
  0
VERTEX
  8
MY3DLAYER
10
483.2786796564404
20
12.878679656440362
30
0.0
 70
     32
  0
VERTEX
  8
MY3DLAYER
10
482.8019237886467
20
13.500000000000004
30
0.0
 70
     32
  0
VERTEX
  8
MY3DLAYER
10
482.50222252113275
20
14.223542864692439
30
0.0
 70
     32
  0
VERTEX
  8
MY3DLAYER
10
482.40000000000003
20
15.0
30
0.0
 70
     32
  0
VERTEX
  8
MY3DLAYER
10
482.50222252113275
20
15.776457135307561
30
0.0
 70
     32
  0
VERTEX
  8
MY3DLAYER
10
482.8019237886467
20
16.499999999999996
30
0.0
 70
     32
  0
VERTEX
  8
MY3DLAYER
10
483.2786796564404
20
17.12132034355964
30
0.0
 70
     32
  0
VERTEX
  8
MY3DLAYER
10
483.90000000000003
20
17.598076211353312
30
0.0
 70
     32
  0
VERTEX
  8
MY3DLAYER
10
484.62354286469247
20
17.8977774788672
30
0.0
 70
     32
  0
VERTEX
  8
MY3DLAYER
10
485.4
20
17.999999999999996
30
0.0
 70
     32
  0
VERTEX
  8
MY3DLAYER
10
486.17645713530754
20
17.8977774788672
30
0.0
 70
     32
  0
VERTEX
  8
MY3DLAYER
10
486.9
20
17.598076211353312
30
0.0
 70
     32
  0
VERTEX
  8
MY3DLAYER
10
487.52132034355964
20
17.12132034355964
30
0.0
 70
     32
  0
VERTEX
  8
MY3DLAYER
10
487.9980762113533
20
16.499999999999996
30
0.0
 70
     32
  0
VERTEX
  8
MY3DLAYER
10
488.29777747886715
20
15.776457135307563
30
0.0
 70
     32
  0
VERTEX
  8
MY3DLAYER
10
488.40000000000003
20
15.0
30
0.0
 70
     32
  0
VERTEX
  8
MY3DLAYER
10
488.29777747886715
20
14.22354286469244
30
0.0
 70
     32
  0
VERTEX
  8
MY3DLAYER
10
487.9980762113533
20
13.500000000000004
30
0.0
 70
     32
  0
VERTEX
  8
MY3DLAYER
10
487.52132034355964
20
12.878679656440363
30
0.0
 70
     32
  0
VERTEX
  8
MY3DLAYER
10
486.9
20
12.401923788646691
30
0.0
 70
     32
  0
VERTEX
  8
MY3DLAYER
10
486.17645713530754
20
12.102222521132802
30
0.0
 70
     32
  0
SEQEND
  0
POLYLINE
 8
Component#1
 66
     1
70
    8
 10
0.0
 20
 0.0
 30
0.0
  0
VERTEX
  8
MY3DLAYER
10
457.52132034355964
20
17.12132034355964
30
0.0
 70
     32
  0
VERTEX
  8
MY3DLAYER
10
457.9980762113533
20
16.499999999999996
30
0.0
 70
     32
  0
VERTEX
  8
MY3DLAYER
10
458.2977774788672
20
15.776457135307563
30
0.0
 70
     32
  0
VERTEX
  8
MY3DLAYER
10
458.4
20
15.0
30
0.0
 70
     32
  0
VERTEX
  8
MY3DLAYER
10
458.2977774788672
20
14.22354286469244
30
0.0
 70
     32
  0
VERTEX
  8
MY3DLAYER
10
457.9980762113533
20
13.500000000000004
30
0.0
 70
     32
  0
VERTEX
  8
MY3DLAYER
10
457.52132034355964
20
12.878679656440363
30
0.0
 70
     32
  0
VERTEX
  8
MY3DLAYER
10
456.9
20
12.401923788646691
30
0.0
 70
     32
  0
VERTEX
  8
MY3DLAYER
10
456.17645713530754
20
12.102222521132802
30
0.0
 70
     32
  0
VERTEX
  8
MY3DLAYER
10
455.40000000000003
20
12.000000000000005
30
0.0
 70
     32
  0
VERTEX
  8
MY3DLAYER
10
454.6235428646924
20
12.102222521132802
30
0.0
 70
     32
  0
VERTEX
  8
MY3DLAYER
10
453.9
20
12.40192378864669
30
0.0
 70
     32
  0
VERTEX
  8
MY3DLAYER
10
453.2786796564403
20
12.878679656440362
30
0.0
 70
     32
  0
VERTEX
  8
MY3DLAYER
10
452.80192378864666
20
13.500000000000004
30
0.0
 70
     32
  0
VERTEX
  8
MY3DLAYER
10
452.5022225211328
20
14.223542864692439
30
0.0
 70
     32
  0
VERTEX
  8
MY3DLAYER
10
452.4
20
15.0
30
0.0
 70
     32
  0
VERTEX
  8
MY3DLAYER
10
452.5022225211328
20
15.776457135307561
30
0.0
 70
     32
  0
VERTEX
  8
MY3DLAYER
10
452.80192378864666
20
16.499999999999996
30
0.0
 70
     32
  0
VERTEX
  8
MY3DLAYER
10
453.2786796564403
20
17.12132034355964
30
0.0
 70
     32
  0
VERTEX
  8
MY3DLAYER
10
453.9
20
17.598076211353312
30
0.0
 70
     32
  0
VERTEX
  8
MY3DLAYER
10
454.6235428646924
20
17.8977774788672
30
0.0
 70
     32
  0
VERTEX
  8
MY3DLAYER
10
455.40000000000003
20
17.999999999999996
30
0.0
 70
     32
  0
VERTEX
  8
MY3DLAYER
10
456.17645713530754
20
17.8977774788672
30
0.0
 70
     32
  0
VERTEX
  8
MY3DLAYER
10
456.9
20
17.598076211353312
30
0.0
 70
     32
  0
VERTEX
  8
MY3DLAYER
10
457.52132034355964
20
17.12132034355964
30
0.0
 70
     32
  0
SEQEND
  0
POLYLINE
 8
Component#1
 66
     1
70
    8
 10
0.0
 20
 0.0
 30
0.0
  0
VERTEX
  8
MY3DLAYER
10
422.3999999999999
20
15.0
30
0.0
 70
     32
  0
VERTEX
  8
MY3DLAYER
10
422.5022225211328
20
15.776457135307561
30
0.0
 70
     32
  0
VERTEX
  8
MY3DLAYER
10
422.80192378864666
20
16.499999999999996
30
0.0
 70
     32
  0
VERTEX
  8
MY3DLAYER
10
423.2786796564404
20
17.12132034355964
30
0.0
 70
     32
  0
VERTEX
  8
MY3DLAYER
10
423.9
20
17.598076211353312
30
0.0
 70
     32
  0
VERTEX
  8
MY3DLAYER
10
424.6235428646924
20
17.8977774788672
30
0.0
 70
     32
  0
VERTEX
  8
MY3DLAYER
10
425.4
20
17.999999999999996
30
0.0
 70
     32
  0
VERTEX
  8
MY3DLAYER
10
426.1764571353076
20
17.8977774788672
30
0.0
 70
     32
  0
VERTEX
  8
MY3DLAYER
10
426.90000000000003
20
17.598076211353312
30
0.0
 70
     32
  0
VERTEX
  8
MY3DLAYER
10
427.5213203435596
20
17.12132034355964
30
0.0
 70
     32
  0
VERTEX
  8
MY3DLAYER
10
427.99807621135335
20
16.499999999999996
30
0.0
 70
     32
  0
VERTEX
  8
MY3DLAYER
10
428.2977774788672
20
15.776457135307563
30
0.0
 70
     32
  0
VERTEX
  8
MY3DLAYER
10
428.40000000000003
20
15.0
30
0.0
 70
     32
  0
VERTEX
  8
MY3DLAYER
10
428.2977774788672
20
14.22354286469244
30
0.0
 70
     32
  0
VERTEX
  8
MY3DLAYER
10
427.99807621135335
20
13.500000000000004
30
0.0
 70
     32
  0
VERTEX
  8
MY3DLAYER
10
427.5213203435596
20
12.878679656440363
30
0.0
 70
     32
  0
VERTEX
  8
MY3DLAYER
10
426.90000000000003
20
12.401923788646691
30
0.0
 70
     32
  0
VERTEX
  8
MY3DLAYER
10
426.1764571353076
20
12.102222521132802
30
0.0
 70
     32
  0
VERTEX
  8
MY3DLAYER
10
425.4
20
12.000000000000005
30
0.0
 70
     32
  0
VERTEX
  8
MY3DLAYER
10
424.6235428646924
20
12.102222521132802
30
0.0
 70
     32
  0
VERTEX
  8
MY3DLAYER
10
423.9
20
12.40192378864669
30
0.0
 70
     32
  0
VERTEX
  8
MY3DLAYER
10
423.2786796564404
20
12.878679656440362
30
0.0
 70
     32
  0
VERTEX
  8
MY3DLAYER
10
422.80192378864666
20
13.500000000000004
30
0.0
 70
     32
  0
VERTEX
  8
MY3DLAYER
10
422.5022225211328
20
14.223542864692439
30
0.0
 70
     32
  0
VERTEX
  8
MY3DLAYER
10
422.3999999999999
20
15.0
30
0.0
 70
     32
  0
SEQEND
  0
POLYLINE
 8
Component#1
 66
     1
70
    8
 10
0.0
 20
 0.0
 30
0.0
  0
VERTEX
  8
MY3DLAYER
10
392.4
20
15.0
30
0.0
 70
     32
  0
VERTEX
  8
MY3DLAYER
10
392.5022225211328
20
15.776457135307561
30
0.0
 70
     32
  0
VERTEX
  8
MY3DLAYER
10
392.8019237886467
20
16.499999999999996
30
0.0
 70
     32
  0
VERTEX
  8
MY3DLAYER
10
393.2786796564404
20
17.12132034355964
30
0.0
 70
     32
  0
VERTEX
  8
MY3DLAYER
10
393.9
20
17.598076211353312
30
0.0
 70
     32
  0
VERTEX
  8
MY3DLAYER
10
394.62354286469247
20
17.8977774788672
30
0.0
 70
     32
  0
VERTEX
  8
MY3DLAYER
10
395.4
20
17.999999999999996
30
0.0
 70
     32
  0
VERTEX
  8
MY3DLAYER
10
396.17645713530754
20
17.8977774788672
30
0.0
 70
     32
  0
VERTEX
  8
MY3DLAYER
10
396.9
20
17.598076211353312
30
0.0
 70
     32
  0
VERTEX
  8
MY3DLAYER
10
397.52132034355964
20
17.12132034355964
30
0.0
 70
     32
  0
VERTEX
  8
MY3DLAYER
10
397.9980762113533
20
16.499999999999996
30
0.0
 70
     32
  0
VERTEX
  8
MY3DLAYER
10
398.2977774788672
20
15.776457135307563
30
0.0
 70
     32
  0
VERTEX
  8
MY3DLAYER
10
398.4
20
15.0
30
0.0
 70
     32
  0
VERTEX
  8
MY3DLAYER
10
398.2977774788672
20
14.22354286469244
30
0.0
 70
     32
  0
VERTEX
  8
MY3DLAYER
10
397.9980762113533
20
13.500000000000004
30
0.0
 70
     32
  0
VERTEX
  8
MY3DLAYER
10
397.52132034355964
20
12.878679656440363
30
0.0
 70
     32
  0
VERTEX
  8
MY3DLAYER
10
396.90000000000003
20
12.401923788646691
30
0.0
 70
     32
  0
VERTEX
  8
MY3DLAYER
10
396.17645713530754
20
12.102222521132802
30
0.0
 70
     32
  0
VERTEX
  8
MY3DLAYER
10
395.4
20
12.000000000000005
30
0.0
 70
     32
  0
VERTEX
  8
MY3DLAYER
10
394.62354286469247
20
12.102222521132802
30
0.0
 70
     32
  0
VERTEX
  8
MY3DLAYER
10
393.90000000000003
20
12.40192378864669
30
0.0
 70
     32
  0
VERTEX
  8
MY3DLAYER
10
393.2786796564404
20
12.878679656440362
30
0.0
 70
     32
  0
VERTEX
  8
MY3DLAYER
10
392.8019237886467
20
13.500000000000004
30
0.0
 70
     32
  0
VERTEX
  8
MY3DLAYER
10
392.5022225211328
20
14.223542864692439
30
0.0
 70
     32
  0
VERTEX
  8
MY3DLAYER
10
392.4
20
15.0
30
0.0
 70
     32
  0
SEQEND
  0
POLYLINE
 8
Component#1
 66
     1
70
    8
 10
0.0
 20
 0.0
 30
0.0
  0
VERTEX
  8
MY3DLAYER
10
363.90000000000003
20
12.40192378864669
30
0.0
 70
     32
  0
VERTEX
  8
MY3DLAYER
10
363.2786796564404
20
12.878679656440362
30
0.0
 70
     32
  0
VERTEX
  8
MY3DLAYER
10
362.8019237886467
20
13.500000000000004
30
0.0
 70
     32
  0
VERTEX
  8
MY3DLAYER
10
362.5022225211328
20
14.223542864692439
30
0.0
 70
     32
  0
VERTEX
  8
MY3DLAYER
10
362.40000000000003
20
15.0
30
0.0
 70
     32
  0
VERTEX
  8
MY3DLAYER
10
362.5022225211328
20
15.776457135307561
30
0.0
 70
     32
  0
VERTEX
  8
MY3DLAYER
10
362.8019237886467
20
16.499999999999996
30
0.0
 70
     32
  0
VERTEX
  8
MY3DLAYER
10
363.2786796564404
20
17.12132034355964
30
0.0
 70
     32
  0
VERTEX
  8
MY3DLAYER
10
363.9
20
17.598076211353312
30
0.0
 70
     32
  0
VERTEX
  8
MY3DLAYER
10
364.62354286469247
20
17.8977774788672
30
0.0
 70
     32
  0
VERTEX
  8
MY3DLAYER
10
365.40000000000003
20
17.999999999999996
30
0.0
 70
     32
  0
VERTEX
  8
MY3DLAYER
10
366.17645713530754
20
17.8977774788672
30
0.0
 70
     32
  0
VERTEX
  8
MY3DLAYER
10
366.9
20
17.598076211353312
30
0.0
 70
     32
  0
VERTEX
  8
MY3DLAYER
10
367.52132034355964
20
17.12132034355964
30
0.0
 70
     32
  0
VERTEX
  8
MY3DLAYER
10
367.9980762113533
20
16.499999999999996
30
0.0
 70
     32
  0
VERTEX
  8
MY3DLAYER
10
368.2977774788672
20
15.776457135307563
30
0.0
 70
     32
  0
VERTEX
  8
MY3DLAYER
10
368.4
20
15.0
30
0.0
 70
     32
  0
VERTEX
  8
MY3DLAYER
10
368.2977774788672
20
14.22354286469244
30
0.0
 70
     32
  0
VERTEX
  8
MY3DLAYER
10
367.9980762113533
20
13.500000000000004
30
0.0
 70
     32
  0
VERTEX
  8
MY3DLAYER
10
367.52132034355964
20
12.878679656440363
30
0.0
 70
     32
  0
VERTEX
  8
MY3DLAYER
10
366.90000000000003
20
12.401923788646691
30
0.0
 70
     32
  0
VERTEX
  8
MY3DLAYER
10
366.17645713530754
20
12.102222521132802
30
0.0
 70
     32
  0
VERTEX
  8
MY3DLAYER
10
365.40000000000003
20
12.000000000000005
30
0.0
 70
     32
  0
VERTEX
  8
MY3DLAYER
10
364.62354286469247
20
12.102222521132802
30
0.0
 70
     32
  0
VERTEX
  8
MY3DLAYER
10
363.90000000000003
20
12.40192378864669
30
0.0
 70
     32
  0
SEQEND
  0
POLYLINE
 8
Component#1
 66
     1
70
    8
 10
0.0
 20
 0.0
 30
0.0
  0
VERTEX
  8
MY3DLAYER
10
425.4
20
25.0
30
0.0
 70
     32
  0
VERTEX
  8
MY3DLAYER
10
407.3999999999999
20
25.0
30
0.0
 70
     32
  0
VERTEX
  8
MY3DLAYER
10
406.6235428646924
20
25.102222521132795
30
0.0
 70
     32
  0
VERTEX
  8
MY3DLAYER
10
405.9
20
25.40192378864668
30
0.0
 70
     32
  0
VERTEX
  8
MY3DLAYER
10
405.2786796564403
20
25.878679656440358
30
0.0
 70
     32
  0
VERTEX
  8
MY3DLAYER
10
404.80192378864666
20
26.499999999999996
30
0.0
 70
     32
  0
VERTEX
  8
MY3DLAYER
10
404.50222252113275
20
27.22354286469243
30
0.0
 70
     32
  0
VERTEX
  8
MY3DLAYER
10
404.4
20
27.999999999999993
30
0.0
 70
     32
  0
VERTEX
  8
MY3DLAYER
10
404.50222252113275
20
28.776457135307556
30
0.0
 70
     32
  0
VERTEX
  8
MY3DLAYER
10
404.80192378864666
20
29.49999999999999
30
0.0
 70
     32
  0
VERTEX
  8
MY3DLAYER
10
405.2786796564403
20
30.12132034355963
30
0.0
 70
     32
  0
VERTEX
  8
MY3DLAYER
10
405.9
20
30.598076211353305
30
0.0
 70
     32
  0
VERTEX
  8
MY3DLAYER
10
406.6235428646924
20
30.897777478867194
30
0.0
 70
     32
  0
VERTEX
  8
MY3DLAYER
10
407.3999999999999
20
30.99999999999999
30
0.0
 70
     32
  0
VERTEX
  8
MY3DLAYER
10
407.3999999999999
20
59.00000000000001
30
0.0
 70
     32
  0
VERTEX
  8
MY3DLAYER
10
406.6235428646924
20
59.102222521132795
30
0.0
 70
     32
  0
VERTEX
  8
MY3DLAYER
10
405.9
20
59.401923788646684
30
0.0
 70
     32
  0
VERTEX
  8
MY3DLAYER
10
405.2786796564403
20
59.87867965644036
30
0.0
 70
     32
  0
VERTEX
  8
MY3DLAYER
10
404.80192378864666
20
60.5
30
0.0
 70
     32
  0
VERTEX
  8
MY3DLAYER
10
404.50222252113275
20
61.22354286469243
30
0.0
 70
     32
  0
VERTEX
  8
MY3DLAYER
10
404.4
20
62.0
30
0.0
 70
     32
  0
VERTEX
  8
MY3DLAYER
10
404.50222252113275
20
62.77645713530756
30
0.0
 70
     32
  0
VERTEX
  8
MY3DLAYER
10
404.80192378864666
20
63.5
30
0.0
 70
     32
  0
VERTEX
  8
MY3DLAYER
10
405.2786796564403
20
64.12132034355963
30
0.0
 70
     32
  0
VERTEX
  8
MY3DLAYER
10
405.9
20
64.59807621135332
30
0.0
 70
     32
  0
VERTEX
  8
MY3DLAYER
10
406.6235428646924
20
64.8977774788672
30
0.0
 70
     32
  0
VERTEX
  8
MY3DLAYER
10
407.3999999999999
20
65.0
30
0.0
 70
     32
  0
VERTEX
  8
MY3DLAYER
10
425.4
20
65.0
30
0.0
 70
     32
  0
VERTEX
  8
MY3DLAYER
10
426.1764571353076
20
64.8977774788672
30
0.0
 70
     32
  0
VERTEX
  8
MY3DLAYER
10
426.90000000000003
20
64.59807621135332
30
0.0
 70
     32
  0
VERTEX
  8
MY3DLAYER
10
427.5213203435596
20
64.12132034355963
30
0.0
 70
     32
  0
VERTEX
  8
MY3DLAYER
10
427.99807621135335
20
63.5
30
0.0
 70
     32
  0
VERTEX
  8
MY3DLAYER
10
428.2977774788672
20
62.77645713530756
30
0.0
 70
     32
  0
VERTEX
  8
MY3DLAYER
10
428.40000000000003
20
62.0
30
0.0
 70
     32
  0
VERTEX
  8
MY3DLAYER
10
428.2977774788672
20
61.22354286469244
30
0.0
 70
     32
  0
VERTEX
  8
MY3DLAYER
10
427.99807621135335
20
60.5
30
0.0
 70
     32
  0
VERTEX
  8
MY3DLAYER
10
427.5213203435596
20
59.87867965644036
30
0.0
 70
     32
  0
VERTEX
  8
MY3DLAYER
10
426.90000000000003
20
59.401923788646684
30
0.0
 70
     32
  0
VERTEX
  8
MY3DLAYER
10
426.1764571353076
20
59.1022225211328
30
0.0
 70
     32
  0
VERTEX
  8
MY3DLAYER
10
425.4
20
59.00000000000001
30
0.0
 70
     32
  0
VERTEX
  8
MY3DLAYER
10
425.4
20
30.99999999999999
30
0.0
 70
     32
  0
VERTEX
  8
MY3DLAYER
10
426.1764571353076
20
30.897777478867194
30
0.0
 70
     32
  0
VERTEX
  8
MY3DLAYER
10
426.90000000000003
20
30.598076211353305
30
0.0
 70
     32
  0
VERTEX
  8
MY3DLAYER
10
427.5213203435596
20
30.12132034355963
30
0.0
 70
     32
  0
VERTEX
  8
MY3DLAYER
10
427.99807621135335
20
29.49999999999999
30
0.0
 70
     32
  0
VERTEX
  8
MY3DLAYER
10
428.2977774788672
20
28.776457135307556
30
0.0
 70
     32
  0
VERTEX
  8
MY3DLAYER
10
428.40000000000003
20
27.999999999999993
30
0.0
 70
     32
  0
VERTEX
  8
MY3DLAYER
10
428.2977774788672
20
27.223542864692437
30
0.0
 70
     32
  0
VERTEX
  8
MY3DLAYER
10
427.99807621135335
20
26.499999999999996
30
0.0
 70
     32
  0
VERTEX
  8
MY3DLAYER
10
427.5213203435596
20
25.878679656440358
30
0.0
 70
     32
  0
VERTEX
  8
MY3DLAYER
10
426.90000000000003
20
25.40192378864668
30
0.0
 70
     32
  0
VERTEX
  8
MY3DLAYER
10
426.1764571353076
20
25.102222521132795
30
0.0
 70
     32
  0
VERTEX
  8
MY3DLAYER
10
425.4
20
25.0
30
0.0
 70
     32
  0
SEQEND
  0
POLYLINE
 8
Component#1
 66
     1
70
    8
 10
0.0
 20
 0.0
 30
0.0
  0
VERTEX
  8
MY3DLAYER
10
209.99999999999997
20
220.0
30
0.0
 70
     32
  0
VERTEX
  8
MY3DLAYER
10
228.0
20
220.0
30
0.0
 70
     32
  0
VERTEX
  8
MY3DLAYER
10
228.77645713530754
20
220.1022225211328
30
0.0
 70
     32
  0
VERTEX
  8
MY3DLAYER
10
229.49999999999997
20
220.40192378864668
30
0.0
 70
     32
  0
VERTEX
  8
MY3DLAYER
10
230.12132034355963
20
220.87867965644034
30
0.0
 70
     32
  0
VERTEX
  8
MY3DLAYER
10
230.5980762113533
20
221.49999999999997
30
0.0
 70
     32
  0
VERTEX
  8
MY3DLAYER
10
230.8977774788672
20
222.22354286469243
30
0.0
 70
     32
  0
VERTEX
  8
MY3DLAYER
10
230.99999999999997
20
223.0
30
0.0
 70
     32
  0
VERTEX
  8
MY3DLAYER
10
230.8977774788672
20
223.77645713530757
30
0.0
 70
     32
  0
VERTEX
  8
MY3DLAYER
10
230.5980762113533
20
224.49999999999997
30
0.0
 70
     32
  0
VERTEX
  8
MY3DLAYER
10
230.12132034355963
20
225.12132034355963
30
0.0
 70
     32
  0
VERTEX
  8
MY3DLAYER
10
229.5
20
225.5980762113533
30
0.0
 70
     32
  0
VERTEX
  8
MY3DLAYER
10
228.77645713530754
20
225.8977774788672
30
0.0
 70
     32
  0
VERTEX
  8
MY3DLAYER
10
228.0
20
226.0
30
0.0
 70
     32
  0
VERTEX
  8
MY3DLAYER
10
228.0
20
250.0
30
0.0
 70
     32
  0
VERTEX
  8
MY3DLAYER
10
310.0
20
250.0
30
0.0
 70
     32
  0
VERTEX
  8
MY3DLAYER
10
310.0
20
25.0
30
0.0
 70
     32
  0
VERTEX
  8
MY3DLAYER
10
309.7861215343452
20
21.73684519449871
30
0.0
 70
     32
  0
VERTEX
  8
MY3DLAYER
10
309.1481456572267
20
18.529523872436982
30
0.0
 70
     32
  0
VERTEX
  8
MY3DLAYER
10
308.0969883127822
20
15.432914190872756
30
0.0
 70
     32
  0
VERTEX
  8
MY3DLAYER
10
306.65063509461095
20
12.500000000000002
30
0.0
 70
     32
  0
VERTEX
  8
MY3DLAYER
10
304.8338335072809
20
9.780964274781986
30
0.0
 70
     32
  0
VERTEX
  8
MY3DLAYER
10
302.67766952966366
20
7.322330470336312
30
0.0
 70
     32
  0
VERTEX
  8
MY3DLAYER
10
300.21903572521796
20
5.166166492719124
30
0.0
 70
     32
  0
VERTEX
  8
MY3DLAYER
10
297.5
20
3.349364905389034
30
0.0
 70
     32
  0
VERTEX
  8
MY3DLAYER
10
294.5670858091272
20
1.9030116872178306
30
0.0
 70
     32
  0
VERTEX
  8
MY3DLAYER
10
291.470476127563
20
0.851854342773291
30
0.0
 70
     32
  0
VERTEX
  8
MY3DLAYER
10
288.26315480550124
20
0.21387846565474
30
0.0
 70
     32
  0
VERTEX
  8
MY3DLAYER
10
285.0
20
0.0
30
0.0
 70
     32
  0
VERTEX
  8
MY3DLAYER
10
135.0
20
0.0
30
0.0
 70
     32
  0
VERTEX
  8
MY3DLAYER
10
131.73684519449873
20
0.21387846565474
30
0.0
 70
     32
  0
VERTEX
  8
MY3DLAYER
10
128.52952387243698
20
0.851854342773291
30
0.0
 70
     32
  0
VERTEX
  8
MY3DLAYER
10
125.43291419087275
20
1.9030116872178306
30
0.0
 70
     32
  0
VERTEX
  8
MY3DLAYER
10
122.5
20
3.349364905389034
30
0.0
 70
     32
  0
VERTEX
  8
MY3DLAYER
10
119.780964274782
20
5.166166492719124
30
0.0
 70
     32
  0
VERTEX
  8
MY3DLAYER
10
117.32233047033631
20
7.322330470336312
30
0.0
 70
     32
  0
VERTEX
  8
MY3DLAYER
10
115.16616649271913
20
9.780964274781986
30
0.0
 70
     32
  0
VERTEX
  8
MY3DLAYER
10
113.34936490538902
20
12.500000000000002
30
0.0
 70
     32
  0
VERTEX
  8
MY3DLAYER
10
111.90301168721783
20
15.432914190872756
30
0.0
 70
     32
  0
VERTEX
  8
MY3DLAYER
10
110.85185434277331
20
18.529523872436982
30
0.0
 70
     32
  0
VERTEX
  8
MY3DLAYER
10
110.21387846565473
20
21.73684519449871
30
0.0
 70
     32
  0
VERTEX
  8
MY3DLAYER
10
110.0
20
25.0
30
0.0
 70
     32
  0
VERTEX
  8
MY3DLAYER
10
110.0
20
89.01923788646685
30
0.0
 70
     32
  0
VERTEX
  8
MY3DLAYER
10
110.03993807315167
20
90.84957386616719
30
0.0
 70
     32
  0
VERTEX
  8
MY3DLAYER
10
110.15967626821454
20
92.67642569730066
30
0.0
 70
     32
  0
VERTEX
  8
MY3DLAYER
10
110.35898665672877
20
94.49631586357526
30
0.0
 70
     32
  0
VERTEX
  8
MY3DLAYER
10
110.63748984004181
20
96.30578010062365
30
0.0
 70
     32
  0
VERTEX
  8
MY3DLAYER
10
110.99465567151513
20
98.10137399042743
30
0.0
 70
     32
  0
VERTEX
  8
MY3DLAYER
10
111.42980426568855
20
99.87967951796244
30
0.0
 70
     32
  0
VERTEX
  8
MY3DLAYER
10
111.94210729248077
20
101.63731157758474
30
0.0
 70
     32
  0
VERTEX
  8
MY3DLAYER
10
112.53058955396297
20
103.37092441677157
30
0.0
 70
     32
  0
VERTEX
  8
MY3DLAYER
10
113.19413084070325
20
105.07721800495143
30
0.0
 70
     32
  0
VERTEX
  8
MY3DLAYER
10
113.93146806414906
20
106.75294431529984
30
0.0
 70
     32
  0
VERTEX
  8
MY3DLAYER
10
114.74119766098808
20
108.39491350754297
30
0.0
 70
     32
  0
VERTEX
  8
MY3DLAYER
10
115.6217782649107
20
109.99999999999999
30
0.0
 70
     32
  0
VERTEX
  8
MY3DLAYER
10
122.61480784023476
20
126.8826668428235
30
0.0
 70
     32
  0
VERTEX
  8
MY3DLAYER
10
125.0
20
145.0
30
0.0
 70
     32
  0
VERTEX
  8
MY3DLAYER
10
122.61480784023479
20
163.11733315717646
30
0.0
 70
     32
  0
VERTEX
  8
MY3DLAYER
10
115.6217782649107
20
180.0
30
0.0
 70
     32
  0
VERTEX
  8
MY3DLAYER
10
110.0
20
187.32644407531882
30
0.0
 70
     32
  0
VERTEX
  8
MY3DLAYER
10
104.49747468305833
20
194.49747468305833
30
0.0
 70
     32
  0
VERTEX
  8
MY3DLAYER
10
97.32644407531885
20
200.0
30
0.0
 70
     32
  0
VERTEX
  8
MY3DLAYER
10
90.0
20
205.62177826491072
30
0.0
 70
     32
  0
VERTEX
  8
MY3DLAYER
10
73.11733315717647
20
212.6148078402348
30
0.0
 70
     32
  0
VERTEX
  8
MY3DLAYER
10
55.0
20
215.0
30
0.0
 70
     32
  0
VERTEX
  8
MY3DLAYER
10
36.882666842823554
20
212.6148078402348
30
0.0
 70
     32
  0
VERTEX
  8
MY3DLAYER
10
20.00000000000002
20
205.62177826491072
30
0.0
 70
     32
  0
VERTEX
  8
MY3DLAYER
10
17.893601911008933
20
204.63954870489113
30
0.0
 70
     32
  0
VERTEX
  8
MY3DLAYER
10
15.648642368892423
20
204.03801360854044
30
0.0
 70
     32
  0
VERTEX
  8
MY3DLAYER
10
13.333333333333352
20
203.83545031536988
30
0.0
 70
     32
  0
VERTEX
  8
MY3DLAYER
10
11.018024297774275
20
204.03801360854044
30
0.0
 70
     32
  0
VERTEX
  8
MY3DLAYER
10
8.773064755657762
20
204.6395487048911
30
0.0
 70
     32
  0
VERTEX
  8
MY3DLAYER
10
6.666666666666678
20
205.62177826491072
30
0.0
 70
     32
  0
VERTEX
  8
MY3DLAYER
10
4.762831870846154
20
206.95485774045014
30
0.0
 70
     32
  0
VERTEX
  8
MY3DLAYER
10
3.1194074250803023
20
208.59828218621604
30
0.0
 70
     32
  0
VERTEX
  8
MY3DLAYER
10
1.7863279495408266
20
210.50211698203654
30
0.0
 70
     32
  0
VERTEX
  8
MY3DLAYER
10
0.8040983895212279
20
212.60851507102763
30
0.0
 70
     32
  0
VERTEX
  8
MY3DLAYER
10
0.20256329317056343
20
214.85347461314416
30
0.0
 70
     32
  0
VERTEX
  8
MY3DLAYER
10
2.8199664825478975e-15
20
217.16878364870323
30
0.0
 70
     32
  0
VERTEX
  8
MY3DLAYER
10
0.0
20
250.0
30
0.0
 70
     32
  0
VERTEX
  8
MY3DLAYER
10
59.99999999999998
20
250.0
30
0.0
 70
     32
  0
VERTEX
  8
MY3DLAYER
10
60.77645713530754
20
250.10222252113277
30
0.0
 70
     32
  0
VERTEX
  8
MY3DLAYER
10
61.49999999999998
20
250.40192378864668
30
0.0
 70
     32
  0
VERTEX
  8
MY3DLAYER
10
62.12132034355962
20
250.87867965644034
30
0.0
 70
     32
  0
VERTEX
  8
MY3DLAYER
10
62.598076211353295
20
251.49999999999997
30
0.0
 70
     32
  0
VERTEX
  8
MY3DLAYER
10
62.897777478867184
20
252.22354286469243
30
0.0
 70
     32
  0
VERTEX
  8
MY3DLAYER
10
62.99999999999997
20
253.0
30
0.0
 70
     32
  0
VERTEX
  8
MY3DLAYER
10
62.897777478867184
20
253.77645713530754
30
0.0
 70
     32
  0
VERTEX
  8
MY3DLAYER
10
62.598076211353295
20
254.49999999999997
30
0.0
 70
     32
  0
VERTEX
  8
MY3DLAYER
10
62.12132034355962
20
255.12132034355963
30
0.0
 70
     32
  0
VERTEX
  8
MY3DLAYER
10
61.49999999999998
20
255.5980762113533
30
0.0
 70
     32
  0
VERTEX
  8
MY3DLAYER
10
60.77645713530754
20
255.8977774788672
30
0.0
 70
     32
  0
VERTEX
  8
MY3DLAYER
10
59.99999999999998
20
255.99999999999997
30
0.0
 70
     32
  0
VERTEX
  8
MY3DLAYER
10
59.99999999999998
20
268.0
30
0.0
 70
     32
  0
VERTEX
  8
MY3DLAYER
10
209.99999999999997
20
268.0
30
0.0
 70
     32
  0
VERTEX
  8
MY3DLAYER
10
209.99999999999997
20
226.0
30
0.0
 70
     32
  0
VERTEX
  8
MY3DLAYER
10
209.22354286469243
20
225.8977774788672
30
0.0
 70
     32
  0
VERTEX
  8
MY3DLAYER
10
208.5
20
225.5980762113533
30
0.0
 70
     32
  0
VERTEX
  8
MY3DLAYER
10
207.87867965644034
20
225.12132034355963
30
0.0
 70
     32
  0
VERTEX
  8
MY3DLAYER
10
207.40192378864668
20
224.50000000000003
30
0.0
 70
     32
  0
VERTEX
  8
MY3DLAYER
10
207.10222252113277
20
223.77645713530757
30
0.0
 70
     32
  0
VERTEX
  8
MY3DLAYER
10
206.99999999999997
20
223.0
30
0.0
 70
     32
  0
VERTEX
  8
MY3DLAYER
10
207.10222252113277
20
222.22354286469243
30
0.0
 70
     32
  0
VERTEX
  8
MY3DLAYER
10
207.40192378864668
20
221.50000000000003
30
0.0
 70
     32
  0
VERTEX
  8
MY3DLAYER
10
207.87867965644034
20
220.87867965644034
30
0.0
 70
     32
  0
VERTEX
  8
MY3DLAYER
10
208.49999999999994
20
220.40192378864668
30
0.0
 70
     32
  0
VERTEX
  8
MY3DLAYER
10
209.22354286469243
20
220.1022225211328
30
0.0
 70
     32
  0
VERTEX
  8
MY3DLAYER
10
209.99999999999997
20
220.0
30
0.0
 70
     32
  0
SEQEND
  0
POLYLINE
 8
Component#1
 66
     1
70
    8
 10
0.0
 20
 0.0
 30
0.0
  0
VERTEX
  8
MY3DLAYER
10
149.2235428646924
20
12.102222521132802
30
0.0
 70
     32
  0
VERTEX
  8
MY3DLAYER
10
149.99999999999997
20
12.000000000000005
30
0.0
 70
     32
  0
VERTEX
  8
MY3DLAYER
10
150.77645713530754
20
12.102222521132802
30
0.0
 70
     32
  0
VERTEX
  8
MY3DLAYER
10
151.49999999999997
20
12.40192378864669
30
0.0
 70
     32
  0
VERTEX
  8
MY3DLAYER
10
152.12132034355963
20
12.878679656440362
30
0.0
 70
     32
  0
VERTEX
  8
MY3DLAYER
10
152.5980762113533
20
13.500000000000004
30
0.0
 70
     32
  0
VERTEX
  8
MY3DLAYER
10
152.89777747886717
20
14.223542864692439
30
0.0
 70
     32
  0
VERTEX
  8
MY3DLAYER
10
152.99999999999997
20
15.0
30
0.0
 70
     32
  0
VERTEX
  8
MY3DLAYER
10
152.89777747886717
20
15.776457135307561
30
0.0
 70
     32
  0
VERTEX
  8
MY3DLAYER
10
152.5980762113533
20
16.499999999999996
30
0.0
 70
     32
  0
VERTEX
  8
MY3DLAYER
10
152.12132034355963
20
17.12132034355964
30
0.0
 70
     32
  0
VERTEX
  8
MY3DLAYER
10
151.49999999999997
20
17.598076211353312
30
0.0
 70
     32
  0
VERTEX
  8
MY3DLAYER
10
150.77645713530754
20
17.8977774788672
30
0.0
 70
     32
  0
VERTEX
  8
MY3DLAYER
10
149.99999999999997
20
17.999999999999996
30
0.0
 70
     32
  0
VERTEX
  8
MY3DLAYER
10
149.2235428646924
20
17.8977774788672
30
0.0
 70
     32
  0
VERTEX
  8
MY3DLAYER
10
148.49999999999997
20
17.598076211353312
30
0.0
 70
     32
  0
VERTEX
  8
MY3DLAYER
10
147.8786796564403
20
17.12132034355964
30
0.0
 70
     32
  0
VERTEX
  8
MY3DLAYER
10
147.40192378864668
20
16.499999999999996
30
0.0
 70
     32
  0
VERTEX
  8
MY3DLAYER
10
147.10222252113277
20
15.776457135307563
30
0.0
 70
     32
  0
VERTEX
  8
MY3DLAYER
10
146.99999999999997
20
15.0
30
0.0
 70
     32
  0
VERTEX
  8
MY3DLAYER
10
147.10222252113277
20
14.22354286469244
30
0.0
 70
     32
  0
VERTEX
  8
MY3DLAYER
10
147.40192378864668
20
13.500000000000004
30
0.0
 70
     32
  0
VERTEX
  8
MY3DLAYER
10
147.8786796564403
20
12.878679656440363
30
0.0
 70
     32
  0
VERTEX
  8
MY3DLAYER
10
148.49999999999997
20
12.401923788646691
30
0.0
 70
     32
  0
VERTEX
  8
MY3DLAYER
10
149.2235428646924
20
12.102222521132802
30
0.0
 70
     32
  0
SEQEND
  0
POLYLINE
 8
Component#1
 66
     1
70
    8
 10
0.0
 20
 0.0
 30
0.0
  0
VERTEX
  8
MY3DLAYER
10
177.87867965644034
20
17.12132034355964
30
0.0
 70
     32
  0
VERTEX
  8
MY3DLAYER
10
177.40192378864668
20
16.499999999999996
30
0.0
 70
     32
  0
VERTEX
  8
MY3DLAYER
10
177.10222252113277
20
15.776457135307563
30
0.0
 70
     32
  0
VERTEX
  8
MY3DLAYER
10
177.0
20
15.0
30
0.0
 70
     32
  0
VERTEX
  8
MY3DLAYER
10
177.10222252113277
20
14.22354286469244
30
0.0
 70
     32
  0
VERTEX
  8
MY3DLAYER
10
177.40192378864668
20
13.500000000000004
30
0.0
 70
     32
  0
VERTEX
  8
MY3DLAYER
10
177.87867965644034
20
12.878679656440363
30
0.0
 70
     32
  0
VERTEX
  8
MY3DLAYER
10
178.5
20
12.401923788646691
30
0.0
 70
     32
  0
VERTEX
  8
MY3DLAYER
10
179.22354286469243
20
12.102222521132802
30
0.0
 70
     32
  0
VERTEX
  8
MY3DLAYER
10
180.0
20
12.000000000000005
30
0.0
 70
     32
  0
VERTEX
  8
MY3DLAYER
10
180.77645713530754
20
12.102222521132802
30
0.0
 70
     32
  0
VERTEX
  8
MY3DLAYER
10
181.49999999999997
20
12.40192378864669
30
0.0
 70
     32
  0
VERTEX
  8
MY3DLAYER
10
182.12132034355963
20
12.878679656440362
30
0.0
 70
     32
  0
VERTEX
  8
MY3DLAYER
10
182.5980762113533
20
13.500000000000004
30
0.0
 70
     32
  0
VERTEX
  8
MY3DLAYER
10
182.8977774788672
20
14.223542864692439
30
0.0
 70
     32
  0
VERTEX
  8
MY3DLAYER
10
182.99999999999997
20
15.0
30
0.0
 70
     32
  0
VERTEX
  8
MY3DLAYER
10
182.8977774788672
20
15.776457135307561
30
0.0
 70
     32
  0
VERTEX
  8
MY3DLAYER
10
182.5980762113533
20
16.499999999999996
30
0.0
 70
     32
  0
VERTEX
  8
MY3DLAYER
10
182.12132034355963
20
17.12132034355964
30
0.0
 70
     32
  0
VERTEX
  8
MY3DLAYER
10
181.49999999999997
20
17.598076211353312
30
0.0
 70
     32
  0
VERTEX
  8
MY3DLAYER
10
180.77645713530754
20
17.8977774788672
30
0.0
 70
     32
  0
VERTEX
  8
MY3DLAYER
10
180.0
20
17.999999999999996
30
0.0
 70
     32
  0
VERTEX
  8
MY3DLAYER
10
179.22354286469243
20
17.8977774788672
30
0.0
 70
     32
  0
VERTEX
  8
MY3DLAYER
10
178.5
20
17.598076211353312
30
0.0
 70
     32
  0
VERTEX
  8
MY3DLAYER
10
177.87867965644034
20
17.12132034355964
30
0.0
 70
     32
  0
SEQEND
  0
POLYLINE
 8
Component#1
 66
     1
70
    8
 10
0.0
 20
 0.0
 30
0.0
  0
VERTEX
  8
MY3DLAYER
10
212.99999999999997
20
15.0
30
0.0
 70
     32
  0
VERTEX
  8
MY3DLAYER
10
212.89777747886717
20
15.776457135307561
30
0.0
 70
     32
  0
VERTEX
  8
MY3DLAYER
10
212.5980762113533
20
16.499999999999996
30
0.0
 70
     32
  0
VERTEX
  8
MY3DLAYER
10
212.12132034355963
20
17.12132034355964
30
0.0
 70
     32
  0
VERTEX
  8
MY3DLAYER
10
211.5
20
17.598076211353312
30
0.0
 70
     32
  0
VERTEX
  8
MY3DLAYER
10
210.77645713530754
20
17.8977774788672
30
0.0
 70
     32
  0
VERTEX
  8
MY3DLAYER
10
209.99999999999997
20
17.999999999999996
30
0.0
 70
     32
  0
VERTEX
  8
MY3DLAYER
10
209.22354286469243
20
17.8977774788672
30
0.0
 70
     32
  0
VERTEX
  8
MY3DLAYER
10
208.5
20
17.598076211353312
30
0.0
 70
     32
  0
VERTEX
  8
MY3DLAYER
10
207.87867965644034
20
17.12132034355964
30
0.0
 70
     32
  0
VERTEX
  8
MY3DLAYER
10
207.40192378864668
20
16.499999999999996
30
0.0
 70
     32
  0
VERTEX
  8
MY3DLAYER
10
207.10222252113277
20
15.776457135307563
30
0.0
 70
     32
  0
VERTEX
  8
MY3DLAYER
10
206.99999999999997
20
15.0
30
0.0
 70
     32
  0
VERTEX
  8
MY3DLAYER
10
207.10222252113277
20
14.22354286469244
30
0.0
 70
     32
  0
VERTEX
  8
MY3DLAYER
10
207.40192378864668
20
13.500000000000004
30
0.0
 70
     32
  0
VERTEX
  8
MY3DLAYER
10
207.87867965644034
20
12.878679656440363
30
0.0
 70
     32
  0
VERTEX
  8
MY3DLAYER
10
208.49999999999994
20
12.401923788646691
30
0.0
 70
     32
  0
VERTEX
  8
MY3DLAYER
10
209.22354286469243
20
12.102222521132802
30
0.0
 70
     32
  0
VERTEX
  8
MY3DLAYER
10
209.99999999999997
20
12.000000000000005
30
0.0
 70
     32
  0
VERTEX
  8
MY3DLAYER
10
210.77645713530754
20
12.102222521132802
30
0.0
 70
     32
  0
VERTEX
  8
MY3DLAYER
10
211.49999999999994
20
12.40192378864669
30
0.0
 70
     32
  0
VERTEX
  8
MY3DLAYER
10
212.12132034355963
20
12.878679656440362
30
0.0
 70
     32
  0
VERTEX
  8
MY3DLAYER
10
212.5980762113533
20
13.500000000000004
30
0.0
 70
     32
  0
VERTEX
  8
MY3DLAYER
10
212.89777747886717
20
14.223542864692439
30
0.0
 70
     32
  0
VERTEX
  8
MY3DLAYER
10
212.99999999999997
20
15.0
30
0.0
 70
     32
  0
SEQEND
  0
POLYLINE
 8
Component#1
 66
     1
70
    8
 10
0.0
 20
 0.0
 30
0.0
  0
VERTEX
  8
MY3DLAYER
10
242.99999999999997
20
15.0
30
0.0
 70
     32
  0
VERTEX
  8
MY3DLAYER
10
242.89777747886717
20
15.776457135307561
30
0.0
 70
     32
  0
VERTEX
  8
MY3DLAYER
10
242.59807621135326
20
16.499999999999996
30
0.0
 70
     32
  0
VERTEX
  8
MY3DLAYER
10
242.1213203435596
20
17.12132034355964
30
0.0
 70
     32
  0
VERTEX
  8
MY3DLAYER
10
241.5
20
17.598076211353312
30
0.0
 70
     32
  0
VERTEX
  8
MY3DLAYER
10
240.7764571353075
20
17.8977774788672
30
0.0
 70
     32
  0
VERTEX
  8
MY3DLAYER
10
239.99999999999997
20
17.999999999999996
30
0.0
 70
     32
  0
VERTEX
  8
MY3DLAYER
10
239.2235428646924
20
17.8977774788672
30
0.0
 70
     32
  0
VERTEX
  8
MY3DLAYER
10
238.5
20
17.598076211353312
30
0.0
 70
     32
  0
VERTEX
  8
MY3DLAYER
10
237.8786796564403
20
17.12132034355964
30
0.0
 70
     32
  0
VERTEX
  8
MY3DLAYER
10
237.40192378864666
20
16.499999999999996
30
0.0
 70
     32
  0
VERTEX
  8
MY3DLAYER
10
237.10222252113277
20
15.776457135307563
30
0.0
 70
     32
  0
VERTEX
  8
MY3DLAYER
10
236.99999999999997
20
15.0
30
0.0
 70
     32
  0
VERTEX
  8
MY3DLAYER
10
237.10222252113277
20
14.22354286469244
30
0.0
 70
     32
  0
VERTEX
  8
MY3DLAYER
10
237.40192378864666
20
13.500000000000004
30
0.0
 70
     32
  0
VERTEX
  8
MY3DLAYER
10
237.8786796564403
20
12.878679656440363
30
0.0
 70
     32
  0
VERTEX
  8
MY3DLAYER
10
238.49999999999994
20
12.401923788646691
30
0.0
 70
     32
  0
VERTEX
  8
MY3DLAYER
10
239.2235428646924
20
12.102222521132802
30
0.0
 70
     32
  0
VERTEX
  8
MY3DLAYER
10
239.99999999999997
20
12.000000000000005
30
0.0
 70
     32
  0
VERTEX
  8
MY3DLAYER
10
240.7764571353075
20
12.102222521132802
30
0.0
 70
     32
  0
VERTEX
  8
MY3DLAYER
10
241.49999999999994
20
12.40192378864669
30
0.0
 70
     32
  0
VERTEX
  8
MY3DLAYER
10
242.1213203435596
20
12.878679656440362
30
0.0
 70
     32
  0
VERTEX
  8
MY3DLAYER
10
242.59807621135326
20
13.500000000000004
30
0.0
 70
     32
  0
VERTEX
  8
MY3DLAYER
10
242.89777747886717
20
14.223542864692439
30
0.0
 70
     32
  0
VERTEX
  8
MY3DLAYER
10
242.99999999999997
20
15.0
30
0.0
 70
     32
  0
SEQEND
  0
POLYLINE
 8
Component#1
 66
     1
70
    8
 10
0.0
 20
 0.0
 30
0.0
  0
VERTEX
  8
MY3DLAYER
10
271.49999999999994
20
12.40192378864669
30
0.0
 70
     32
  0
VERTEX
  8
MY3DLAYER
10
272.1213203435596
20
12.878679656440362
30
0.0
 70
     32
  0
VERTEX
  8
MY3DLAYER
10
272.59807621135326
20
13.500000000000004
30
0.0
 70
     32
  0
VERTEX
  8
MY3DLAYER
10
272.89777747886717
20
14.223542864692439
30
0.0
 70
     32
  0
VERTEX
  8
MY3DLAYER
10
272.99999999999994
20
15.0
30
0.0
 70
     32
  0
VERTEX
  8
MY3DLAYER
10
272.89777747886717
20
15.776457135307561
30
0.0
 70
     32
  0
VERTEX
  8
MY3DLAYER
10
272.59807621135326
20
16.499999999999996
30
0.0
 70
     32
  0
VERTEX
  8
MY3DLAYER
10
272.1213203435596
20
17.12132034355964
30
0.0
 70
     32
  0
VERTEX
  8
MY3DLAYER
10
271.5
20
17.598076211353312
30
0.0
 70
     32
  0
VERTEX
  8
MY3DLAYER
10
270.7764571353075
20
17.8977774788672
30
0.0
 70
     32
  0
VERTEX
  8
MY3DLAYER
10
269.99999999999994
20
17.999999999999996
30
0.0
 70
     32
  0
VERTEX
  8
MY3DLAYER
10
269.2235428646924
20
17.8977774788672
30
0.0
 70
     32
  0
VERTEX
  8
MY3DLAYER
10
268.5
20
17.598076211353312
30
0.0
 70
     32
  0
VERTEX
  8
MY3DLAYER
10
267.8786796564403
20
17.12132034355964
30
0.0
 70
     32
  0
VERTEX
  8
MY3DLAYER
10
267.4019237886467
20
16.499999999999996
30
0.0
 70
     32
  0
VERTEX
  8
MY3DLAYER
10
267.1022225211328
20
15.776457135307563
30
0.0
 70
     32
  0
VERTEX
  8
MY3DLAYER
10
266.99999999999994
20
15.0
30
0.0
 70
     32
  0
VERTEX
  8
MY3DLAYER
10
267.1022225211328
20
14.22354286469244
30
0.0
 70
     32
  0
VERTEX
  8
MY3DLAYER
10
267.4019237886467
20
13.500000000000004
30
0.0
 70
     32
  0
VERTEX
  8
MY3DLAYER
10
267.8786796564403
20
12.878679656440363
30
0.0
 70
     32
  0
VERTEX
  8
MY3DLAYER
10
268.49999999999994
20
12.401923788646691
30
0.0
 70
     32
  0
VERTEX
  8
MY3DLAYER
10
269.2235428646924
20
12.102222521132802
30
0.0
 70
     32
  0
VERTEX
  8
MY3DLAYER
10
269.99999999999994
20
12.000000000000005
30
0.0
 70
     32
  0
VERTEX
  8
MY3DLAYER
10
270.7764571353075
20
12.102222521132802
30
0.0
 70
     32
  0
VERTEX
  8
MY3DLAYER
10
271.49999999999994
20
12.40192378864669
30
0.0
 70
     32
  0
SEQEND
  0
POLYLINE
 8
Component#1
 66
     1
70
    8
 10
0.0
 20
 0.0
 30
0.0
  0
VERTEX
  8
MY3DLAYER
10
209.99999999999997
20
25.0
30
0.0
 70
     32
  0
VERTEX
  8
MY3DLAYER
10
228.0
20
25.0
30
0.0
 70
     32
  0
VERTEX
  8
MY3DLAYER
10
228.77645713530754
20
25.102222521132795
30
0.0
 70
     32
  0
VERTEX
  8
MY3DLAYER
10
229.49999999999997
20
25.40192378864668
30
0.0
 70
     32
  0
VERTEX
  8
MY3DLAYER
10
230.12132034355963
20
25.878679656440358
30
0.0
 70
     32
  0
VERTEX
  8
MY3DLAYER
10
230.5980762113533
20
26.499999999999996
30
0.0
 70
     32
  0
VERTEX
  8
MY3DLAYER
10
230.8977774788672
20
27.22354286469243
30
0.0
 70
     32
  0
VERTEX
  8
MY3DLAYER
10
230.99999999999997
20
27.999999999999993
30
0.0
 70
     32
  0
VERTEX
  8
MY3DLAYER
10
230.8977774788672
20
28.776457135307556
30
0.0
 70
     32
  0
VERTEX
  8
MY3DLAYER
10
230.5980762113533
20
29.49999999999999
30
0.0
 70
     32
  0
VERTEX
  8
MY3DLAYER
10
230.12132034355963
20
30.12132034355963
30
0.0
 70
     32
  0
VERTEX
  8
MY3DLAYER
10
229.5
20
30.598076211353305
30
0.0
 70
     32
  0
VERTEX
  8
MY3DLAYER
10
228.77645713530754
20
30.897777478867194
30
0.0
 70
     32
  0
VERTEX
  8
MY3DLAYER
10
228.0
20
30.99999999999999
30
0.0
 70
     32
  0
VERTEX
  8
MY3DLAYER
10
228.0
20
59.00000000000001
30
0.0
 70
     32
  0
VERTEX
  8
MY3DLAYER
10
228.77645713530754
20
59.102222521132795
30
0.0
 70
     32
  0
VERTEX
  8
MY3DLAYER
10
229.49999999999997
20
59.401923788646684
30
0.0
 70
     32
  0
VERTEX
  8
MY3DLAYER
10
230.12132034355963
20
59.87867965644036
30
0.0
 70
     32
  0
VERTEX
  8
MY3DLAYER
10
230.5980762113533
20
60.5
30
0.0
 70
     32
  0
VERTEX
  8
MY3DLAYER
10
230.8977774788672
20
61.22354286469243
30
0.0
 70
     32
  0
VERTEX
  8
MY3DLAYER
10
230.99999999999997
20
62.0
30
0.0
 70
     32
  0
VERTEX
  8
MY3DLAYER
10
230.8977774788672
20
62.77645713530756
30
0.0
 70
     32
  0
VERTEX
  8
MY3DLAYER
10
230.5980762113533
20
63.5
30
0.0
 70
     32
  0
VERTEX
  8
MY3DLAYER
10
230.12132034355963
20
64.12132034355963
30
0.0
 70
     32
  0
VERTEX
  8
MY3DLAYER
10
229.5
20
64.59807621135332
30
0.0
 70
     32
  0
VERTEX
  8
MY3DLAYER
10
228.77645713530754
20
64.8977774788672
30
0.0
 70
     32
  0
VERTEX
  8
MY3DLAYER
10
228.0
20
65.0
30
0.0
 70
     32
  0
VERTEX
  8
MY3DLAYER
10
209.99999999999997
20
65.0
30
0.0
 70
     32
  0
VERTEX
  8
MY3DLAYER
10
209.22354286469243
20
64.8977774788672
30
0.0
 70
     32
  0
VERTEX
  8
MY3DLAYER
10
208.5
20
64.59807621135332
30
0.0
 70
     32
  0
VERTEX
  8
MY3DLAYER
10
207.87867965644034
20
64.12132034355963
30
0.0
 70
     32
  0
VERTEX
  8
MY3DLAYER
10
207.40192378864668
20
63.5
30
0.0
 70
     32
  0
VERTEX
  8
MY3DLAYER
10
207.10222252113277
20
62.77645713530756
30
0.0
 70
     32
  0
VERTEX
  8
MY3DLAYER
10
206.99999999999997
20
62.0
30
0.0
 70
     32
  0
VERTEX
  8
MY3DLAYER
10
207.10222252113277
20
61.22354286469244
30
0.0
 70
     32
  0
VERTEX
  8
MY3DLAYER
10
207.40192378864668
20
60.5
30
0.0
 70
     32
  0
VERTEX
  8
MY3DLAYER
10
207.87867965644034
20
59.87867965644036
30
0.0
 70
     32
  0
VERTEX
  8
MY3DLAYER
10
208.49999999999994
20
59.401923788646684
30
0.0
 70
     32
  0
VERTEX
  8
MY3DLAYER
10
209.22354286469243
20
59.1022225211328
30
0.0
 70
     32
  0
VERTEX
  8
MY3DLAYER
10
209.99999999999997
20
59.00000000000001
30
0.0
 70
     32
  0
VERTEX
  8
MY3DLAYER
10
209.99999999999997
20
30.99999999999999
30
0.0
 70
     32
  0
VERTEX
  8
MY3DLAYER
10
209.22354286469243
20
30.897777478867194
30
0.0
 70
     32
  0
VERTEX
  8
MY3DLAYER
10
208.5
20
30.598076211353305
30
0.0
 70
     32
  0
VERTEX
  8
MY3DLAYER
10
207.87867965644034
20
30.12132034355963
30
0.0
 70
     32
  0
VERTEX
  8
MY3DLAYER
10
207.40192378864668
20
29.49999999999999
30
0.0
 70
     32
  0
VERTEX
  8
MY3DLAYER
10
207.10222252113277
20
28.776457135307556
30
0.0
 70
     32
  0
VERTEX
  8
MY3DLAYER
10
206.99999999999997
20
27.999999999999993
30
0.0
 70
     32
  0
VERTEX
  8
MY3DLAYER
10
207.10222252113277
20
27.223542864692437
30
0.0
 70
     32
  0
VERTEX
  8
MY3DLAYER
10
207.40192378864668
20
26.499999999999996
30
0.0
 70
     32
  0
VERTEX
  8
MY3DLAYER
10
207.87867965644034
20
25.878679656440358
30
0.0
 70
     32
  0
VERTEX
  8
MY3DLAYER
10
208.49999999999994
20
25.40192378864668
30
0.0
 70
     32
  0
VERTEX
  8
MY3DLAYER
10
209.22354286469243
20
25.102222521132795
30
0.0
 70
     32
  0
VERTEX
  8
MY3DLAYER
10
209.99999999999997
20
25.0
30
0.0
 70
     32
  0
SEQEND
  0
POLYLINE
 8
Layer0
 66
     1
70
    8
 10
0.0
 20
 0.0
 30
0.0
  0
VERTEX
  8
MY3DLAYER
10
1029.9
20
367.0
30
5.2528641347036235e-14
 70
     32
  0
VERTEX
  8
MY3DLAYER
10
1029.9
20
350.0000000000001
30
2.6839266655014174e-13
 70
     32
  0
VERTEX
  8
MY3DLAYER
10
1030.0022225211328
20
349.22354286469255
30
3.6602171123872917e-13
 70
     32
  0
VERTEX
  8
MY3DLAYER
10
1030.3019237886467
20
348.5000000000001
30
3.663858605554494e-13
 70
     32
  0
VERTEX
  8
MY3DLAYER
10
1030.7786796564405
20
347.87867965644045
30
3.6673474973977633e-13
 70
     32
  0
VERTEX
  8
MY3DLAYER
10
1031.4
20
347.4019237886468
30
3.6704460257036475e-13
 70
     32
  0
VERTEX
  8
MY3DLAYER
10
1032.1235428646926
20
347.1022225211329
30
3.6729430308886603e-13
 70
     32
  0
VERTEX
  8
MY3DLAYER
10
1032.9
20
347.0000000000001
30
3.6746683461759403e-13
 70
     32
  0
VERTEX
  8
MY3DLAYER
10
1033.6764571353076
20
347.1022225211329
30
3.675504394179876e-13
 70
     32
  0
VERTEX
  8
MY3DLAYER
10
1034.4
20
347.4019237886468
30
3.675394199610636e-13
 70
     32
  0
VERTEX
  8
MY3DLAYER
10
1035.0213203435596
20
347.87867965644045
30
3.6743452720460074e-13
 70
     32
  0
VERTEX
  8
MY3DLAYER
10
1035.4980762113535
20
348.5000000000001
30
3.672429094166084e-13
 70
     32
  0
VERTEX
  8
MY3DLAYER
10
1035.7977774788674
20
349.22354286469255
30
3.6697762503267506e-13
 70
     32
  0
VERTEX
  8
MY3DLAYER
10
1035.9
20
350.0000000000001
30
3.666567527451626e-13
 70
     32
  0
VERTEX
  8
MY3DLAYER
10
1059.9
20
350.0000000000001
30
5.1127624762759225e-14
 70
     32
  0
VERTEX
  8
MY3DLAYER
10
1059.9
20
310.0
30
1.6700793354930172e-13
 70
     32
  0
VERTEX
  8
MY3DLAYER
10
679.9
20
310.0
30
5.1127624762759225e-14
 70
     32
  0
VERTEX
  8
MY3DLAYER
10
679.9
20
350.0000000000001
30
5.1127624762759225e-14
 70
     32
  0
VERTEX
  8
MY3DLAYER
10
703.8999999999999
20
350.0000000000001
30
8.121693648540065e-14
 70
     32
  0
VERTEX
  8
MY3DLAYER
10
704.0022225211327
20
349.22354286469255
30
8.173283839286034e-14
 70
     32
  0
VERTEX
  8
MY3DLAYER
10
704.3019237886466
20
348.5000000000001
30
8.225908817523467e-14
 70
     32
  0
VERTEX
  8
MY3DLAYER
10
704.7786796564402
20
347.87867965644045
30
8.275982277952372e-14
 70
     32
  0
VERTEX
  8
MY3DLAYER
10
705.4
20
347.4019237886468
30
8.320091796994822e-14
 70
     32
  0
VERTEX
  8
MY3DLAYER
10
706.1235428646924
20
347.1022225211329
30
8.355231383822506e-14
 70
     32
  0
VERTEX
  8
MY3DLAYER
10
706.9
20
347.0000000000001
30
8.379006333664025e-14
 70
     32
  0
VERTEX
  8
MY3DLAYER
10
707.6764571353076
20
347.1022225211329
30
8.389796422977647e-14
 70
     32
  0
VERTEX
  8
MY3DLAYER
10
708.4
20
347.4019237886468
30
8.386866325008108e-14
 70
     32
  0
VERTEX
  8
MY3DLAYER
10
709.0213203435596
20
347.87867965644045
30
8.370415721089823e-14
 70
     32
  0
VERTEX
  8
MY3DLAYER
10
709.4980762113532
20
348.5000000000001
30
8.341565692693909e-14
 70
     32
  0
VERTEX
  8
MY3DLAYER
10
709.7977774788671
20
349.22354286469255
30
8.302282321578625e-14
 70
     32
  0
VERTEX
  8
MY3DLAYER
10
709.9
20
350.0000000000001
30
6.266816836585853e-14
 70
     32
  0
VERTEX
  8
MY3DLAYER
10
709.9
20
367.0
30
5.2528641347036235e-14
 70
     32
  0
VERTEX
  8
MY3DLAYER
10
1029.9
20
367.0
30
5.2528641347036235e-14
 70
     32
  0
SEQEND
 0
ENDSEC
 0
EOF
